<svg width="272" height="51" viewBox="0 0 272 51" fill="none" xmlns="http://www.w3.org/2000/svg">
<path d="M72.184 35V16.76H75.856V24.104H84.616V16.76H88.288V35H84.616V27.08H75.856V35H72.184ZM98.6449 35.384C97.1729 35.384 95.9009 35.128 94.8289 34.616C93.7729 34.088 92.9569 33.336 92.3809 32.36C91.8209 31.384 91.5409 30.232 91.5409 28.904C91.5409 27.624 91.8049 26.496 92.3329 25.52C92.8609 24.544 93.5969 23.784 94.5409 23.24C95.4849 22.68 96.5649 22.4 97.7809 22.4C98.9649 22.4 99.9889 22.648 100.853 23.144C101.717 23.64 102.381 24.344 102.845 25.256C103.325 26.168 103.565 27.24 103.565 28.472C103.565 28.872 103.541 29.288 103.493 29.72H94.7809C95.1169 31.752 96.5249 32.768 99.0049 32.768C99.6929 32.768 100.389 32.696 101.093 32.552C101.797 32.392 102.445 32.168 103.037 31.88L103.373 34.376C102.749 34.696 102.021 34.944 101.189 35.12C100.357 35.296 99.5089 35.384 98.6449 35.384ZM97.6849 24.824C96.9009 24.824 96.2529 25.072 95.7409 25.568C95.2289 26.064 94.9089 26.776 94.7809 27.704H100.445C100.445 27.528 100.429 27.368 100.397 27.224C100.285 26.456 99.9889 25.864 99.5089 25.448C99.0449 25.032 98.4369 24.824 97.6849 24.824ZM111.781 35.384C110.693 35.384 109.725 35.112 108.877 34.568C108.045 34.008 107.389 33.24 106.909 32.264C106.429 31.288 106.189 30.176 106.189 28.928C106.189 27.696 106.445 26.592 106.957 25.616C107.469 24.624 108.157 23.84 109.021 23.264C109.901 22.688 110.885 22.4 111.973 22.4C112.821 22.4 113.589 22.6 114.277 23C114.981 23.384 115.533 23.936 115.933 24.656L115.981 22.784H119.149V35H115.981L115.933 33.128C115.085 34.632 113.701 35.384 111.781 35.384ZM112.765 32.408C113.709 32.408 114.485 32.08 115.093 31.424C115.701 30.768 116.005 29.928 116.005 28.904C116.005 27.864 115.701 27.016 115.093 26.36C114.485 25.704 113.709 25.376 112.765 25.376C111.821 25.376 111.045 25.704 110.437 26.36C109.829 27.016 109.525 27.864 109.525 28.904C109.525 29.928 109.829 30.768 110.437 31.424C111.045 32.08 111.821 32.408 112.765 32.408ZM122.706 35V22.784H125.898L125.922 25.208C126.21 24.36 126.642 23.712 127.218 23.264C127.81 22.8 128.498 22.568 129.282 22.568C129.538 22.568 129.794 22.592 130.05 22.64C130.322 22.688 130.538 22.752 130.698 22.832L130.41 25.976C130.202 25.896 129.954 25.824 129.666 25.76C129.378 25.696 129.114 25.664 128.874 25.664C127.962 25.664 127.258 25.992 126.762 26.648C126.266 27.288 126.018 28.216 126.018 29.432V35H122.706ZM143.258 35.384C142.17 35.384 141.202 35.112 140.354 34.568C139.522 34.008 138.866 33.24 138.386 32.264C137.906 31.288 137.666 30.176 137.666 28.928C137.666 27.696 137.922 26.592 138.434 25.616C138.946 24.624 139.634 23.84 140.498 23.264C141.378 22.688 142.362 22.4 143.45 22.4C144.298 22.4 145.066 22.6 145.754 23C146.458 23.384 147.01 23.936 147.41 24.656L147.458 22.784H150.626V35H147.458L147.41 33.128C146.562 34.632 145.178 35.384 143.258 35.384ZM144.242 32.408C145.186 32.408 145.962 32.08 146.57 31.424C147.178 30.768 147.482 29.928 147.482 28.904C147.482 27.864 147.178 27.016 146.57 26.36C145.962 25.704 145.186 25.376 144.242 25.376C143.298 25.376 142.522 25.704 141.914 26.36C141.306 27.016 141.002 27.864 141.002 28.904C141.002 29.928 141.306 30.768 141.914 31.424C142.522 32.08 143.298 32.408 144.242 32.408ZM163.2 35.384C162.336 35.384 161.48 35.272 160.632 35.048C159.8 34.84 159.136 34.56 158.64 34.208L159.048 31.688C159.608 32.072 160.248 32.376 160.968 32.6C161.688 32.808 162.376 32.912 163.032 32.912C164.472 32.912 165.192 32.496 165.192 31.664C165.192 31.408 165.128 31.2 165 31.04C164.888 30.864 164.664 30.704 164.328 30.56C163.992 30.4 163.504 30.232 162.864 30.056C161.408 29.64 160.376 29.136 159.768 28.544C159.16 27.952 158.856 27.16 158.856 26.168C158.856 24.984 159.296 24.064 160.176 23.408C161.056 22.736 162.264 22.4 163.8 22.4C164.552 22.4 165.304 22.496 166.056 22.688C166.808 22.864 167.432 23.088 167.928 23.36L167.52 25.832C166.96 25.512 166.368 25.272 165.744 25.112C165.12 24.952 164.52 24.872 163.944 24.872C162.696 24.872 162.072 25.256 162.072 26.024C162.072 26.376 162.224 26.664 162.528 26.888C162.832 27.112 163.416 27.352 164.28 27.608C165.8 28.04 166.88 28.56 167.52 29.168C168.176 29.776 168.504 30.592 168.504 31.616C168.504 32.784 168.032 33.704 167.088 34.376C166.144 35.048 164.848 35.384 163.2 35.384ZM172.42 35V25.496H170.02V22.784H172.42V19.472H175.732V22.784H178.636V25.496H175.732V35H172.42ZM186.523 35.384C185.259 35.384 184.131 35.104 183.139 34.544C182.147 33.984 181.363 33.216 180.787 32.24C180.227 31.248 179.947 30.136 179.947 28.904C179.947 27.672 180.235 26.568 180.811 25.592C181.387 24.6 182.171 23.824 183.163 23.264C184.155 22.688 185.275 22.4 186.523 22.4C187.787 22.4 188.915 22.688 189.907 23.264C190.899 23.824 191.675 24.592 192.235 25.568C192.811 26.544 193.099 27.656 193.099 28.904C193.099 30.12 192.811 31.224 192.235 32.216C191.659 33.192 190.875 33.968 189.883 34.544C188.891 35.104 187.771 35.384 186.523 35.384ZM186.523 32.408C187.467 32.408 188.243 32.08 188.851 31.424C189.459 30.768 189.763 29.928 189.763 28.904C189.763 27.864 189.459 27.016 188.851 26.36C188.243 25.704 187.467 25.376 186.523 25.376C185.579 25.376 184.803 25.704 184.195 26.36C183.587 27.016 183.283 27.864 183.283 28.904C183.283 29.928 183.587 30.768 184.195 31.424C184.803 32.08 185.579 32.408 186.523 32.408ZM195.948 35V22.784H199.14L199.164 25.208C199.452 24.36 199.884 23.712 200.46 23.264C201.052 22.8 201.74 22.568 202.524 22.568C202.78 22.568 203.036 22.592 203.292 22.64C203.564 22.688 203.78 22.752 203.94 22.832L203.652 25.976C203.444 25.896 203.196 25.824 202.908 25.76C202.62 25.696 202.356 25.664 202.116 25.664C201.204 25.664 200.5 25.992 200.004 26.648C199.508 27.288 199.26 28.216 199.26 29.432V35H195.948ZM207.398 40.88L210.614 34.184L205.478 22.784H209.126L212.318 30.8L215.342 22.784H218.87L210.782 40.88H207.398Z" fill="#92969B"/>
<circle cx="25.5" cy="25.5" r="25.5" fill="#DD6C51"/>
<path fill-rule="evenodd" clip-rule="evenodd" d="M24.749 14.4821C25.0333 14.6004 25.2762 14.8007 25.4471 15.0577C25.618 15.3147 25.7091 15.6167 25.7091 15.9257V34.6748C25.709 34.9838 25.6177 35.2858 25.4467 35.5426C25.2757 35.7995 25.0327 35.9997 24.7485 36.118C24.4642 36.2362 24.1514 36.2671 23.8496 36.2069C23.5478 36.1466 23.2706 35.9979 23.0529 35.7794L17.2848 29.9875H13.261C12.8483 29.9875 12.4525 29.8229 12.1607 29.5299C11.8689 29.2369 11.705 28.8395 11.705 28.4251V22.1754C11.705 21.761 11.8689 21.3636 12.1607 21.0706C12.4525 20.7776 12.8483 20.613 13.261 20.613H17.2848L23.0529 14.8211C23.2705 14.6025 23.5478 14.4536 23.8497 14.3932C24.1516 14.3328 24.4646 14.3638 24.749 14.4821ZM32.9554 14.2524C33.2472 13.9595 33.6429 13.7949 34.0555 13.7949C34.4681 13.7949 34.8638 13.9595 35.1556 14.2524C36.6024 15.7018 37.7498 17.4239 38.532 19.3198C39.3141 21.2157 39.7155 23.2481 39.7131 25.3003C39.7155 27.3524 39.3141 29.3848 38.532 31.2807C37.7498 33.1766 36.6024 34.8988 35.1556 36.3481C34.8621 36.6327 34.4691 36.7902 34.0611 36.7867C33.6531 36.7831 33.2628 36.6188 32.9743 36.3291C32.6859 36.0394 32.5222 35.6475 32.5187 35.2379C32.5151 34.8282 32.672 34.4335 32.9554 34.1389C34.1133 32.9796 35.0315 31.602 35.6572 30.0851C36.2828 28.5682 36.6036 26.9421 36.6011 25.3003C36.6011 21.8473 35.2101 18.7256 32.9554 16.4616C32.6637 16.1686 32.4998 15.7713 32.4998 15.357C32.4998 14.9427 32.6637 14.5454 32.9554 14.2524ZM28.5534 18.6709C28.6979 18.5256 28.8696 18.4104 29.0585 18.3318C29.2474 18.2531 29.4498 18.2127 29.6543 18.2127C29.8588 18.2127 30.0613 18.2531 30.2502 18.3318C30.4391 18.4104 30.6107 18.5256 30.7552 18.6709C31.6233 19.5406 32.3117 20.574 32.7808 21.7117C33.25 22.8494 33.4907 24.0689 33.4891 25.3003C33.4906 26.5316 33.2499 27.7511 32.7807 28.8888C32.3115 30.0264 31.6232 31.0598 30.7552 31.9296C30.4632 32.2228 30.0672 32.3875 29.6543 32.3875C29.2414 32.3875 28.8454 32.2228 28.5534 31.9296C28.2615 31.6364 28.0974 31.2388 28.0974 30.8242C28.0974 30.4096 28.2615 30.012 28.5534 29.7188C29.1325 29.1394 29.5918 28.4507 29.9048 27.6924C30.2178 26.9341 30.3783 26.1211 30.3771 25.3003C30.3784 24.4794 30.2179 23.6664 29.9049 22.908C29.5919 22.1497 29.1326 21.4611 28.5534 20.8817C28.4088 20.7366 28.294 20.5643 28.2157 20.3746C28.1374 20.185 28.0971 19.9816 28.0971 19.7763C28.0971 19.571 28.1374 19.3677 28.2157 19.178C28.294 18.9883 28.4088 18.816 28.5534 18.6709Z" fill="white"/>
</svg>
