<svg width="51" height="51" viewBox="0 0 51 51" fill="none" xmlns="http://www.w3.org/2000/svg">
<circle cx="25.5" cy="25.5" r="25.5" fill="#DD6C51"/>
<path fill-rule="evenodd" clip-rule="evenodd" d="M24.749 14.4821C25.0333 14.6004 25.2762 14.8007 25.4471 15.0577C25.618 15.3147 25.7091 15.6167 25.7091 15.9257V34.6748C25.709 34.9838 25.6177 35.2858 25.4467 35.5426C25.2757 35.7995 25.0327 35.9997 24.7485 36.118C24.4642 36.2362 24.1514 36.2671 23.8496 36.2069C23.5478 36.1466 23.2706 35.9979 23.0529 35.7794L17.2848 29.9875H13.261C12.8483 29.9875 12.4525 29.8229 12.1607 29.5299C11.8689 29.2369 11.705 28.8395 11.705 28.4251V22.1754C11.705 21.761 11.8689 21.3636 12.1607 21.0706C12.4525 20.7776 12.8483 20.613 13.261 20.613H17.2848L23.0529 14.8211C23.2705 14.6025 23.5478 14.4536 23.8497 14.3932C24.1516 14.3328 24.4646 14.3638 24.749 14.4821ZM32.9554 14.2524C33.2472 13.9595 33.6429 13.7949 34.0555 13.7949C34.4681 13.7949 34.8638 13.9595 35.1556 14.2524C36.6024 15.7018 37.7498 17.4239 38.532 19.3198C39.3141 21.2157 39.7155 23.2481 39.7131 25.3003C39.7155 27.3524 39.3141 29.3848 38.532 31.2807C37.7498 33.1766 36.6024 34.8988 35.1556 36.3481C34.8621 36.6327 34.4691 36.7902 34.0611 36.7867C33.6531 36.7831 33.2628 36.6188 32.9743 36.3291C32.6859 36.0394 32.5222 35.6475 32.5187 35.2379C32.5151 34.8282 32.672 34.4335 32.9554 34.1389C34.1133 32.9796 35.0315 31.602 35.6572 30.0851C36.2828 28.5682 36.6036 26.9421 36.6011 25.3003C36.6011 21.8473 35.2101 18.7256 32.9554 16.4616C32.6637 16.1686 32.4998 15.7713 32.4998 15.357C32.4998 14.9427 32.6637 14.5454 32.9554 14.2524ZM28.5534 18.6709C28.6979 18.5256 28.8696 18.4104 29.0585 18.3318C29.2474 18.2531 29.4498 18.2127 29.6543 18.2127C29.8588 18.2127 30.0613 18.2531 30.2502 18.3318C30.4391 18.4104 30.6107 18.5256 30.7552 18.6709C31.6233 19.5406 32.3117 20.574 32.7808 21.7117C33.25 22.8494 33.4907 24.0689 33.4891 25.3003C33.4906 26.5316 33.2499 27.7511 32.7807 28.8888C32.3115 30.0264 31.6232 31.0598 30.7552 31.9296C30.4632 32.2228 30.0672 32.3875 29.6543 32.3875C29.2414 32.3875 28.8454 32.2228 28.5534 31.9296C28.2615 31.6364 28.0974 31.2388 28.0974 30.8242C28.0974 30.4096 28.2615 30.012 28.5534 29.7188C29.1325 29.1394 29.5918 28.4507 29.9048 27.6924C30.2178 26.9341 30.3783 26.1211 30.3771 25.3003C30.3784 24.4794 30.2179 23.6664 29.9049 22.908C29.5919 22.1497 29.1326 21.4611 28.5534 20.8817C28.4088 20.7366 28.294 20.5643 28.2157 20.3746C28.1374 20.185 28.0971 19.9816 28.0971 19.7763C28.0971 19.571 28.1374 19.3677 28.2157 19.178C28.294 18.9883 28.4088 18.816 28.5534 18.6709Z" fill="white"/>
</svg>
