<?xml version="1.0" encoding="utf-8"?>
<!-- Generator: Adobe Illustrator 24.0.3, SVG Export Plug-In . SVG Version: 6.00 Build 0)  -->
<svg version="1.1" id="Layer_1" xmlns="http://www.w3.org/2000/svg" xmlns:xlink="http://www.w3.org/1999/xlink" x="0px" y="0px"
	 viewBox="0 0 88.3 60.5" style="enable-background:new 0 0 88.3 60.5;" xml:space="preserve">
<style type="text/css">
	.st0{fill:#020203;}
</style>
<g>
	<path class="st0 squiggle" d="M80.8,41.5l1.8-0.1l0-0.4c0-0.1,0-0.2-0.1-0.3c-0.1-0.1-0.2-0.1-0.3-0.2c-0.1,0-0.2,0-0.3-0.1
		c-0.1,0-0.2,0-0.3,0c-0.1,0-0.2,0-0.2,0c-0.1,0-0.2,0-0.3,0.1s-0.2,0.1-0.2,0.1c-0.1,0.1-0.1,0.1-0.1,0.2L80.8,41.5z M80.7,18.3
		c0,0.1,0,0.2,0.1,0.3c0.1,0.1,0.1,0.1,0.3,0.2c0.1,0,0.2,0.1,0.3,0.1c0.1,0,0.2,0,0.3,0l2.9-0.1c0.7,0,1-0.2,1-0.6
		c0-0.4-0.3-0.6-1-0.6l-2.9,0.1C81,17.7,80.7,17.9,80.7,18.3 M86.6,8.9c0,0.3,0,0.6-0.1,0.8c-0.1,0.2-0.3,0.4-0.4,0.6
		c-0.2,0.2-0.4,0.3-0.6,0.4c-0.2,0.1-0.5,0.1-0.8,0.2l-0.3-1.4c0.1,0,0.3,0,0.4,0c0.1,0,0.2,0,0.3-0.1c0.1,0,0.2-0.1,0.3-0.1
		c0.1,0,0.1-0.1,0.2-0.2c0.1-0.1,0.1-0.1,0.1-0.2c0-0.3-0.2-0.4-0.5-0.4c-0.5,0-0.9,0.3-1.4,0.8l-0.3,0.4c-0.1,0.1-0.2,0.2-0.3,0.3
		c-0.1,0.1-0.2,0.2-0.3,0.3c-0.1,0.1-0.2,0.2-0.4,0.3c-0.1,0.1-0.3,0.1-0.4,0.2c-0.2,0-0.3,0.1-0.5,0.1c-0.5,0-1-0.1-1.3-0.5
		c-0.3-0.3-0.5-0.8-0.5-1.3c0-0.5,0.1-0.9,0.5-1.2c0.3-0.3,0.7-0.5,1.2-0.5l0,0c0,0,0.1,0,0.1,0l0.2,1.4c0,0-0.1,0-0.1,0
		c-0.1,0-0.1,0-0.1,0c-0.1,0-0.2,0-0.3,0c-0.1,0-0.2,0-0.2,0.1c-0.1,0-0.1,0.1-0.2,0.1c0,0.1-0.1,0.1-0.1,0.2c0,0.1,0.1,0.3,0.2,0.3
		c0.1,0.1,0.3,0.1,0.4,0.1c0.1,0,0.3,0,0.4-0.1c0.1,0,0.2-0.1,0.3-0.2c0.1-0.1,0.2-0.2,0.3-0.3c0.1-0.1,0.1-0.2,0.2-0.3
		c0.1-0.1,0.2-0.2,0.2-0.3c0.2-0.2,0.3-0.4,0.5-0.5c0.1-0.1,0.3-0.3,0.5-0.4c0.2-0.1,0.4-0.2,0.6-0.3c0.2-0.1,0.4-0.1,0.7-0.1
		c0.5,0,0.9,0.1,1.2,0.5C86.4,8.1,86.6,8.5,86.6,8.9 M82.8,14.2l3.7-0.1l0,1.2l-6.7,0.2l0-1l3.4-1.6L79.8,13l0-1.1l6.7-0.2l0,0.9
		L82.8,14.2z M79.7,18.3c0-1.3,0.7-2,2.3-2l2.2-0.1c0.3,0,0.5,0,0.7,0c0.2,0,0.4,0.1,0.6,0.2c0.2,0.1,0.4,0.2,0.5,0.3
		c0.1,0.1,0.3,0.3,0.4,0.5c0.1,0.2,0.1,0.5,0.1,0.8c0,0.3,0,0.5-0.1,0.8c-0.1,0.2-0.2,0.4-0.3,0.6c-0.1,0.1-0.3,0.3-0.5,0.4
		c-0.2,0.1-0.4,0.2-0.6,0.2c-0.2,0-0.5,0.1-0.7,0.1l-2.2,0.1C80.5,20.3,79.7,19.6,79.7,18.3 M79.7,35.1l6.7,1.1l0,1.2l-6.6,1.5
		l0-1.3l4-0.7l-4.1-0.5L79.7,35.1z M85.5,32.8l0-1.4l0.9,0l0.1,2.8l-6.6,0.2l-0.1-2.8l0.9,0l0.1,1.4l1.8-0.1l0-1l0.9,0l0,1
		L85.5,32.8z M79.8,43.6l0.9,0l0.1,1.4l1.8-0.1l0-1l0.9,0l0,1l2-0.1l0-1.4l0.9,0l0.1,2.8l-6.6,0.2L79.8,43.6z M80.8,49.4l0,1l-1,0
		l-0.1-3.3l1,0l0,1l5.6-0.2l0,1.3L80.8,49.4z M83.4,41.2l0,0.2l3.1-0.1l0,1.3l-6.7,0.2l-0.1-1.5c0-0.3,0-0.6,0.1-0.9
		c0.1-0.3,0.1-0.5,0.3-0.7s0.3-0.3,0.5-0.5c0.2-0.1,0.5-0.2,0.8-0.2c0.1,0,0.3,0,0.4,0c0.1,0,0.2,0,0.4,0.1c0.1,0,0.3,0.1,0.4,0.1
		c0.1,0.1,0.2,0.1,0.3,0.3c0.1,0.1,0.2,0.2,0.3,0.4c1.3-0.4,2.3-0.8,3.2-1.2l0,1.4L83.4,41.2z M86.5,30.6l-6.7,0.2l0-1l3.4-1.6
		l-3.5,0.1l0-1.1l6.7-0.2l0,0.9l-3.6,1.6l3.7-0.1L86.5,30.6z M79.8,21.3l6.7-0.2l0,1.3l-6.7,0.2L79.8,21.3z M80.8,25.6l0,1l-1,0
		l-0.1-3.3l1,0l0,1l5.6-0.2l0,1.3L80.8,25.6z M79.7,51.1l6.7-0.2l0,0.9l-3.6,1.6l3.7-0.1l0,1.2l-6.7,0.2l0-1l3.4-1.6l-3.5,0.1
		L79.7,51.1z M79.8,55.7l6.7-0.2l0,1.3l-6.7,0.2L79.8,55.7z M88.3,0.7H77.9v58.1h10.3V0.7z"/>
	<path class="st0" d="M6.2,8.4L3.8,8.8l2.5,0.3L6.2,8.4z M2.9,17.4c-0.1,0.1-0.1,0.1-0.1,0.2l0,0.4L4.6,18l0-0.4
		c0-0.1,0-0.2-0.1-0.3c-0.1-0.1-0.2-0.1-0.3-0.2c-0.1,0-0.2,0-0.3-0.1c-0.1,0-0.2,0-0.3,0c-0.1,0-0.2,0-0.2,0c-0.1,0-0.2,0-0.3,0.1
		C3,17.2,3,17.3,2.9,17.4 M5.6,12.8c-0.2,0.1-0.3,0.3-0.3,0.6l0,0.1l2.2-0.1l0-0.1c0-0.2,0-0.3-0.1-0.4c0-0.1-0.1-0.2-0.2-0.2
		c-0.1-0.1-0.2-0.1-0.3-0.1c-0.1,0-0.3,0-0.5,0C6,12.6,5.8,12.7,5.6,12.8 M2.7,13.3c0,0.1,0,0.1,0,0.2c0,0,0,0.1,0,0.2l1.7-0.1
		l0-0.2c0-0.1,0-0.2-0.1-0.3c0-0.1-0.1-0.1-0.2-0.2c-0.1,0-0.2-0.1-0.3-0.1c-0.1,0-0.2,0-0.4,0c-0.1,0-0.2,0-0.3,0
		c-0.1,0-0.2,0-0.2,0.1c-0.1,0-0.1,0.1-0.1,0.1c0,0-0.1,0.1-0.1,0.1C2.8,13.1,2.7,13.2,2.7,13.3 M8.6,22.2c0,0.2,0,0.5-0.1,0.6
		c0,0.2-0.1,0.4-0.2,0.5c-0.1,0.1-0.2,0.3-0.3,0.4c-0.1,0.1-0.3,0.2-0.4,0.3C7.5,24,7.4,24,7.2,24.1c-0.2,0-0.4,0.1-0.5,0.1
		c-0.2,0-0.4,0-0.6,0l-4.2,0.1l0-1.3L6,22.8c0.2,0,0.4,0,0.5,0c0.1,0,0.2,0,0.4,0c0.2,0,0.3,0,0.3-0.1c0.1,0,0.1-0.1,0.2-0.1
		c0.1,0,0.1-0.1,0.1-0.2c0-0.1,0-0.2,0-0.3c0-0.1,0-0.2,0-0.2c0-0.1-0.1-0.1-0.1-0.2c-0.1,0-0.1-0.1-0.2-0.1c-0.1,0-0.2,0-0.3,0
		c-0.2,0-0.3,0-0.4,0c-0.1,0-0.3,0-0.5,0c0,0,0,0,0,0l-4.1,0.1l0-1.3l4.2-0.1c0.2,0,0.4,0,0.6,0c0.2,0,0.4,0,0.5,0.1
		c0.2,0,0.4,0.1,0.5,0.1c0.1,0.1,0.3,0.1,0.4,0.2c0.1,0.1,0.2,0.2,0.3,0.3c0.1,0.1,0.2,0.3,0.2,0.5C8.6,21.7,8.6,21.9,8.6,22.2
		 M1.9,15l0-1.4c0-0.2,0-0.5,0-0.7c0-0.2,0.1-0.4,0.1-0.6C2,12.2,2.1,12.1,2.3,12c0.1-0.1,0.3-0.2,0.5-0.3c0.2-0.1,0.4-0.1,0.7-0.1
		c0.3,0,0.6,0.1,0.8,0.2c0.2,0.2,0.4,0.4,0.5,0.7c0.2-0.8,0.7-1.2,1.6-1.2c0.7,0,1.2,0.1,1.5,0.4c0.3,0.3,0.5,0.8,0.5,1.4l0.1,1.6
		L1.9,15z M8.5,19.2l-6.7,0.2L1.8,18c0-0.3,0-0.6,0.1-0.9c0.1-0.3,0.1-0.5,0.3-0.7c0.1-0.2,0.3-0.3,0.5-0.5c0.2-0.1,0.5-0.2,0.8-0.2
		c0.1,0,0.3,0,0.4,0c0.1,0,0.2,0,0.4,0.1c0.1,0,0.3,0.1,0.4,0.1c0.1,0.1,0.2,0.1,0.3,0.3c0.1,0.1,0.2,0.2,0.3,0.4
		c1.3-0.4,2.3-0.8,3.2-1.2l0,1.4l-3,0.9l0,0.2l3.1-0.1L8.5,19.2z M8.5,10.7L1.8,9.5l0-1.2l6.6-1.7l0,1.3L7,8.3l0,0.9l1.4,0.2
		L8.5,10.7z M8.5,5.9L1.9,6.1l0-1l3.4-1.6L1.8,3.7l0-1.1l6.7-0.2l0,0.9L4.8,4.9l3.7-0.1L8.5,5.9z M9.9,59c1.7,0.6,4,0.9,6.2,0.9v-8
		c-1.2-0.1-2.5-0.5-3.2-1.1c-0.7-0.6-1.3-1.4-1.6-2.5c-0.4-1.1-0.6-2.4-0.7-4c-0.1-1.6-0.2-3.4-0.2-5.6V0.7H0v38.1
		c0,1.8,0.1,3.6,0.2,5.3c0.2,1.7,0.4,3.4,0.9,4.9c0.4,1.5,1,3,1.7,4.3c0.7,1.3,1.7,2.4,2.9,3.4C6.9,57.7,8.3,58.4,9.9,59 M33,38.8
		V0.7H22.7v38.1c0,2.2,0,4.1-0.1,5.7c-0.1,1.6-0.3,3-0.6,4c-0.3,1.1-0.9,1.9-1.6,2.5c-0.7,0.6-2.1,0.9-3.4,0.9v8
		c2.2,0,4.6-0.3,6.3-0.9c1.7-0.6,3.1-1.3,4.2-2.3c1.2-1,2.1-2.1,2.8-3.4c0.7-1.3,1.3-2.7,1.7-4.3c0.4-1.6,0.7-3.2,0.8-4.9
		C32.9,42.4,33,40.6,33,38.8"/>
	<path class="st0" d="M60.2,43.2c0.4,1.1,0.6,2.3,0.6,3.5c0,0.7-0.1,1.4-0.2,2c-0.1,0.6-0.4,1.2-0.7,1.6c-0.3,0.5-0.7,0.9-1.3,1.1
		c-0.5,0.3-1.1,0.4-1.9,0.5v8c1.9-0.1,3.8-0.4,5.5-1.1c1.7-0.7,3.2-1.6,4.5-2.8c1.3-1.2,2.3-2.6,3-4.3c0.7-1.7,1.1-3.5,1.1-5.5
		c0-2.1-0.3-4-0.8-5.8c-0.5-1.8-1.3-3.4-2.2-4.9c-0.9-1.5-2-3-3.3-4.3c-1.3-1.4-2.6-2.7-4-4l-1.5-1.3l-6.9,6.9l1.6,1.5
		c0.9,0.8,1.8,1.7,2.6,2.7c0.8,0.9,1.6,1.9,2.3,3C59.3,41,59.8,42.1,60.2,43.2 M50.6,40.7l-10.3,2.1c0.2,2.2,0.5,4.2,1.2,6.2
		c0.6,2,1.6,3.8,2.8,5.4c1.2,1.6,2.7,2.9,4.5,3.9c1.8,1,3.9,1.6,7.1,1.9v-8.1c-1.6-0.4-2.4-0.9-2.9-1.7c-0.6-0.7-1-1.6-1.4-2.7
		c-0.3-1-0.6-2.2-0.7-3.4C50.7,43.2,50.6,41.9,50.6,40.7 M47.5,21.5l1.8-1.7l-2.2,1.2L47.5,21.5z M50.5,18.1l0.7,1l-4.5,5.1
		l-0.8-1.1l1-1.1l-0.5-0.7L45.1,22l-0.8-1.1L50.5,18.1z M49.3,15.9c0,0.2,0,0.4-0.1,0.6c-0.1,0.2-0.2,0.4-0.3,0.5
		c-0.1,0.2-0.3,0.3-0.5,0.4c-0.2,0.1-0.4,0.2-0.6,0.3L47.4,18l-0.5-1.2l0.6-0.2c0.1,0,0.2-0.1,0.3-0.1c0.1,0,0.2-0.1,0.3-0.2
		c0.1-0.1,0.2-0.1,0.2-0.2c0-0.1,0.1-0.1,0.1-0.2c0-0.1,0-0.2,0-0.3c-0.2-0.4-0.5-0.4-1.1-0.1l-2.6,1.2c-0.6,0.3-0.8,0.6-0.7,0.9
		c0,0.1,0.1,0.2,0.2,0.2c0.1,0,0.2,0.1,0.3,0c0.1,0,0.2,0,0.4-0.1c0.1,0,0.2-0.1,0.4-0.1l0.6-0.3l0.5,1.2l-0.5,0.2
		C45.5,18.9,45.2,19,45,19c-0.2,0.1-0.4,0.1-0.6,0.1c-0.2,0-0.4,0-0.6-0.1c-0.2-0.1-0.4-0.2-0.5-0.4c-0.2-0.2-0.3-0.4-0.4-0.6
		c-0.1-0.3-0.2-0.5-0.2-0.8c0-0.2,0-0.4,0.1-0.6c0.1-0.2,0.2-0.4,0.3-0.5c0.1-0.2,0.3-0.3,0.5-0.4c0.2-0.1,0.4-0.2,0.7-0.4l2-0.9
		c1.4-0.6,2.4-0.4,2.9,0.8C49.3,15.5,49.3,15.7,49.3,15.9 M49,11.5c0,0.5-0.1,0.9-0.4,1.2c-0.3,0.4-0.7,0.6-1.2,0.6h0
		c0,0-0.1,0-0.1,0L47,12c0,0,0.1,0,0.1,0c0.1,0,0.1,0,0.1,0c0.1,0,0.2,0,0.3,0c0.1,0,0.2,0,0.2-0.1c0.1,0,0.1-0.1,0.2-0.1
		c0-0.1,0.1-0.1,0.1-0.2c0-0.1-0.1-0.3-0.2-0.3c-0.1-0.1-0.3-0.1-0.4-0.1c-0.1,0-0.3,0-0.4,0.1c-0.1,0.1-0.2,0.1-0.3,0.2
		c-0.1,0.1-0.2,0.2-0.2,0.3c-0.1,0.1-0.1,0.2-0.2,0.3c-0.1,0.1-0.2,0.2-0.2,0.3c-0.2,0.2-0.3,0.4-0.4,0.5c-0.1,0.1-0.3,0.3-0.5,0.4
		c-0.2,0.1-0.4,0.2-0.6,0.3c-0.2,0.1-0.4,0.1-0.7,0.1c-0.5,0-0.9-0.1-1.2-0.4c-0.3-0.3-0.5-0.7-0.5-1.2c0-0.3,0-0.6,0.1-0.8
		c0.1-0.2,0.2-0.5,0.4-0.6s0.4-0.3,0.6-0.4c0.2-0.1,0.5-0.2,0.7-0.2l0.4,1.3c-0.1,0-0.3,0-0.4,0c-0.1,0-0.2,0-0.3,0.1
		c-0.1,0-0.2,0.1-0.3,0.1s-0.1,0.1-0.2,0.2c0,0.1-0.1,0.1-0.1,0.2c0,0.3,0.2,0.4,0.5,0.4c0.5,0,0.9-0.3,1.3-0.9l0.3-0.4
		c0.1-0.1,0.2-0.3,0.2-0.3c0.1-0.1,0.2-0.2,0.3-0.3c0.1-0.1,0.2-0.2,0.3-0.3c0.1-0.1,0.2-0.1,0.4-0.2s0.3-0.1,0.5-0.1
		c0.5,0,1,0.1,1.3,0.4C48.8,10.5,49,10.9,49,11.5 M47.2,25.1l5.2-4.2l0.8,1l-4.5,3.6l0.8,1l-0.7,0.6L47.2,25.1z M49.8,28.1l4.7-4.7
		l2,2L55.8,26l-1-1l-1.3,1.3l0.7,0.7l-0.7,0.7L52.8,27l-1.4,1.4l1,1l-0.7,0.7L49.8,28.1z M50.8,16c-0.3-0.8-0.4-1.8-0.4-2.7
		c0-0.7,0.1-1.4,0.3-2.1c0.2-0.7,0.4-1.2,0.8-1.7c0.4-0.5,0.8-0.9,1.4-1.3c0.5-0.3,1.2-0.5,2.3-0.6v-7.9c-2.5,0.1-4.5,0.5-6.3,1.2
		c-1.8,0.7-3.3,1.7-4.6,3c-1.3,1.3-2.3,2.8-3,4.5c-0.7,1.8-1,3.7-1,5.9c0,1.9,0.2,3.6,0.7,5c0.5,1.5,1.1,2.8,2,4.1
		c0.8,1.2,1.7,2.3,2.8,3.4c1,1,2.1,2,3.2,3l2.7,2.4l6.9-6.9c-0.9-0.7-1.4-1.2-1.9-1.7c-0.5-0.5-0.9-0.9-1.2-1.2
		c-0.7-0.6-1.3-1.2-1.9-1.9c-0.6-0.7-1.1-1.4-1.6-2.1C51.4,17.6,51,16.8,50.8,16 M60.2,16.9l10.5-1.6v-1.2c-0.1-2-0.5-3.9-1.3-5.7
		c-0.8-1.8-1.8-3.3-3-4.6c-1.3-1.3-2.7-2.3-4.5-3.1c-1.7-0.8-3.6-1.1-6-1.1v8.1c1.1,0.1,1.7,0.4,2.2,0.9c0.5,0.5,0.9,1.1,1.2,1.8
		c0.3,0.7,0.5,1.4,0.7,2.2s0.2,1.5,0.3,2.3c0,0.3,0,0.7,0,1C60.2,16.3,60.2,16.6,60.2,16.9"/>
</g>
</svg>
