<svg width="147" height="181" viewBox="0 0 147 181" fill="none" xmlns="http://www.w3.org/2000/svg">
<path d="M147 0.978516H48.9999V48.9133H147V0.978516Z" fill="black"/>
<path d="M147 152.545L118.091 133.064V152.822L88.5724 133.064V152.822L59.0453 133.064V152.822L29.527 133.064V152.822L0 133.064V180.999H29.527H59.0453H80.4555H88.5724H109.974H118.091H139.501H147V152.545Z" fill="black"/>
<path d="M147 67.0254H0V114.96H147V67.0254Z" fill="black"/>
<path d="M10.6521 81.9459H16.7797C18.5332 81.8544 20.261 82.3735 21.6314 83.4036C22.2301 83.8975 22.7025 84.5115 23.0136 85.2C23.3247 85.8885 23.4664 86.6339 23.4283 87.3809C23.4674 88.1341 23.3263 88.886 23.0154 89.5815C22.7045 90.2769 22.2316 90.8984 21.6314 91.4002C20.2441 92.4373 18.4968 92.9565 16.7258 92.858H14.9288V97.9138H10.6521V81.9459ZM14.9468 89.6644H16.1328C18.1094 89.6644 19.1067 88.906 19.1067 87.3809C19.1295 87.0658 19.0749 86.7501 18.9472 86.4579C18.8195 86.1657 18.622 85.905 18.37 85.6956C17.7117 85.2804 16.9239 85.0845 16.1328 85.1395H14.9468V89.6644Z" fill="white"/>
<path d="M34.1089 98.9777C32.6144 98.998 31.138 98.636 29.8092 97.9235C28.5445 97.2369 27.4872 96.199 26.7547 94.9249C26.1865 93.9518 25.8116 92.8698 25.6523 91.7431C25.493 90.6164 25.5525 89.4679 25.8273 88.3656C26.1021 87.2633 26.5865 86.2296 27.252 85.3257C27.9174 84.4218 28.7503 83.6661 29.7013 83.1034C31.0452 82.3145 32.5663 81.9119 34.1089 81.9368C35.6039 81.9112 37.0816 82.2735 38.4085 82.9911C39.6773 83.6748 40.7379 84.7132 41.4714 85.9897C42.2036 87.3118 42.5952 88.8086 42.6083 90.3347C42.6214 91.8609 42.2555 93.3646 41.5461 94.7002C40.8252 95.9983 39.7814 97.07 38.5247 97.8025C37.1805 98.599 35.6554 99.0049 34.1089 98.9777ZM34.1089 95.1669C34.8627 95.1807 35.6059 94.9806 36.2587 94.5879C36.8985 94.1967 37.4215 93.6283 37.7694 92.946C38.1512 92.187 38.3425 91.3398 38.3255 90.4832C38.3401 89.6484 38.1637 88.822 37.8109 88.0722C37.4866 87.3614 36.974 86.7618 36.3334 86.344C35.6631 85.9222 34.8919 85.7065 34.1089 85.7218C33.3551 85.7079 32.6119 85.908 31.9591 86.3007C31.3215 86.6921 30.8013 87.2607 30.4567 87.9426C30.0723 88.701 29.8781 89.5481 29.8922 90.4054C29.8802 91.2409 30.0595 92.0674 30.4152 92.8164C30.7367 93.5292 31.2499 94.1295 31.8927 94.5447C32.5603 94.9645 33.3291 95.1773 34.1089 95.1582V95.1669Z" fill="white"/>
<path d="M44.7391 81.9472H50.6247C52.3135 81.8503 53.9804 82.3605 55.3124 83.3818C56.1705 84.197 56.7359 85.2625 56.9238 86.4187C57.1118 87.5749 56.9123 88.7596 56.3551 89.7955C55.9237 90.5457 55.2923 91.167 54.5283 91.593L58.587 97.9138H53.8647L51.0125 92.7491H48.8582V97.8969H44.7391V81.9472ZM48.8582 89.5423H50.0301C51.9259 89.5423 52.8651 88.7912 52.8651 87.2891C52.8914 86.9817 52.8435 86.6726 52.7252 86.3867C52.607 86.1009 52.4217 85.8463 52.1844 85.6435C51.5621 85.2373 50.8188 85.0471 50.0732 85.1034H48.8495L48.8582 89.5423Z" fill="white"/>
<path d="M63.4192 85.3226H58.587V81.9355H72.4349V85.3226H67.611V97.9138H63.4525L63.4192 85.3226Z" fill="white"/>
<path d="M73.5 81.9355H78.3961L82.0704 93.281L85.7536 81.9355H90.5435L84.275 97.9138H79.733L73.5 81.9355Z" fill="white"/>
<path d="M91.6088 81.9355H96.9349V97.9138H91.6088V81.9355Z" fill="white"/>
<path d="M99.0652 81.9355H110.487V85.3172H103.191V88.1831H109.593V91.5056H103.191V94.5322H110.783V97.9138H99.0652V81.9355Z" fill="white"/>
<path d="M112.913 81.9355H117.201L119.561 92.4609L122.428 82.1469H125.85L128.757 92.2918L130.995 81.9355H135.283L130.709 97.9138H127.009L124.061 87.6252L121.194 97.9138H117.495L112.913 81.9355Z" fill="white"/>
</svg>
