<svg width="361" height="480" viewBox="0 0 361 480" fill="none" xmlns="http://www.w3.org/2000/svg">
<path d="M13.104 465L1.248 425.48H9.568L17.16 455.588L25.792 426H32.916L41.548 455.224L49.088 425.48H57.304L45.448 465H37.856L29.224 435.932L20.748 465H13.104ZM70.163 465.832C67.8057 465.832 65.7084 465.243 63.871 464.064C62.0684 462.851 60.647 461.187 59.607 459.072C58.567 456.957 58.047 454.548 58.047 451.844C58.047 449.175 58.6017 446.783 59.711 444.668C60.8204 442.519 62.311 440.82 64.183 439.572C66.0897 438.324 68.2217 437.7 70.579 437.7C72.4164 437.7 74.0804 438.133 75.571 439C77.0964 439.832 78.2924 441.028 79.159 442.588L79.263 438.532H86.127V465H79.263L79.159 460.944C77.3217 464.203 74.323 465.832 70.163 465.832ZM72.295 459.384C74.3404 459.384 76.0217 458.673 77.339 457.252C78.6564 455.831 79.315 454.011 79.315 451.792C79.315 449.539 78.6564 447.701 77.339 446.28C76.0217 444.859 74.3404 444.148 72.295 444.148C70.2497 444.148 68.5684 444.859 67.251 446.28C65.9337 447.701 65.275 449.539 65.275 451.792C65.275 454.011 65.9337 455.831 67.251 457.252C68.5684 458.673 70.2497 459.384 72.295 459.384ZM94.9764 477.74L101.944 463.232L90.8164 438.532H98.7204L105.636 455.9L112.188 438.532H119.832L102.308 477.74H94.9764ZM146.487 465.832C144.13 465.832 142.033 465.243 140.195 464.064C138.393 462.851 136.971 461.187 135.931 459.072C134.891 456.957 134.371 454.548 134.371 451.844C134.371 449.175 134.926 446.783 136.035 444.668C137.145 442.519 138.635 440.82 140.507 439.572C142.414 438.324 144.546 437.7 146.903 437.7C148.741 437.7 150.405 438.133 151.895 439C153.421 439.832 154.617 441.028 155.483 442.588L155.587 438.532H162.451V465H155.587L155.483 460.944C153.646 464.203 150.647 465.832 146.487 465.832ZM148.619 459.384C150.665 459.384 152.346 458.673 153.663 457.252C154.981 455.831 155.639 454.011 155.639 451.792C155.639 449.539 154.981 447.701 153.663 446.28C152.346 444.859 150.665 444.148 148.619 444.148C146.574 444.148 144.893 444.859 143.575 446.28C142.258 447.701 141.599 449.539 141.599 451.792C141.599 454.011 142.258 455.831 143.575 457.252C144.893 458.673 146.574 459.384 148.619 459.384ZM170.157 465V422.88H177.333V442.172C178.061 440.751 179.118 439.659 180.505 438.896C181.926 438.099 183.555 437.7 185.393 437.7C188.443 437.7 190.766 438.671 192.361 440.612C193.99 442.553 194.805 445.327 194.805 448.932V465H187.629V450.284C187.629 446.159 186.034 444.096 182.845 444.096C181.111 444.096 179.759 444.685 178.789 445.864C177.818 447.008 177.333 448.637 177.333 450.752V465H170.157ZM216.185 465.832C212.996 465.832 210.24 465.277 207.917 464.168C205.629 463.024 203.861 461.395 202.613 459.28C201.4 457.165 200.793 454.669 200.793 451.792C200.793 449.019 201.365 446.575 202.509 444.46C203.653 442.345 205.248 440.699 207.293 439.52C209.338 438.307 211.678 437.7 214.313 437.7C216.878 437.7 219.097 438.237 220.969 439.312C222.841 440.387 224.28 441.912 225.285 443.888C226.325 445.864 226.845 448.187 226.845 450.856C226.845 451.723 226.793 452.624 226.689 453.56H207.813C208.541 457.963 211.592 460.164 216.965 460.164C218.456 460.164 219.964 460.008 221.489 459.696C223.014 459.349 224.418 458.864 225.701 458.24L226.429 463.648C225.077 464.341 223.5 464.879 221.697 465.26C219.894 465.641 218.057 465.832 216.185 465.832ZM214.105 442.952C212.406 442.952 211.002 443.489 209.893 444.564C208.784 445.639 208.09 447.181 207.813 449.192H220.085C220.085 448.811 220.05 448.464 219.981 448.152C219.738 446.488 219.097 445.205 218.057 444.304C217.052 443.403 215.734 442.952 214.105 442.952ZM244.647 465.832C242.29 465.832 240.193 465.243 238.355 464.064C236.553 462.851 235.131 461.187 234.091 459.072C233.051 456.957 232.531 454.548 232.531 451.844C232.531 449.175 233.086 446.783 234.195 444.668C235.305 442.519 236.795 440.82 238.667 439.572C240.574 438.324 242.706 437.7 245.063 437.7C246.901 437.7 248.565 438.133 250.055 439C251.581 439.832 252.777 441.028 253.643 442.588L253.747 438.532H260.611V465H253.747L253.643 460.944C251.806 464.203 248.807 465.832 244.647 465.832ZM246.779 459.384C248.825 459.384 250.506 458.673 251.823 457.252C253.141 455.831 253.799 454.011 253.799 451.792C253.799 449.539 253.141 447.701 251.823 446.28C250.506 444.859 248.825 444.148 246.779 444.148C244.734 444.148 243.053 444.859 241.735 446.28C240.418 447.701 239.759 449.539 239.759 451.792C239.759 454.011 240.418 455.831 241.735 457.252C243.053 458.673 244.734 459.384 246.779 459.384ZM278.925 465.832C276.567 465.832 274.47 465.243 272.633 464.064C270.83 462.851 269.409 461.187 268.369 459.072C267.329 456.957 266.809 454.548 266.809 451.844C266.809 449.175 267.363 446.783 268.473 444.668C269.582 442.519 271.073 440.82 272.945 439.572C274.851 438.324 276.983 437.7 279.341 437.7C281.074 437.7 282.669 438.081 284.125 438.844C285.581 439.607 286.759 440.716 287.661 442.172V422.88H294.889V465H288.025L287.921 460.996C286.985 462.556 285.754 463.752 284.229 464.584C282.703 465.416 280.935 465.832 278.925 465.832ZM281.057 459.384C283.102 459.384 284.783 458.673 286.101 457.252C287.418 455.831 288.077 454.011 288.077 451.792C288.077 449.539 287.418 447.701 286.101 446.28C284.783 444.859 283.102 444.148 281.057 444.148C279.011 444.148 277.33 444.859 276.013 446.28C274.695 447.701 274.037 449.539 274.037 451.792C274.037 454.011 274.695 455.831 276.013 457.252C277.33 458.673 279.011 459.384 281.057 459.384Z" fill="white"/>
<path d="M301 0H100V98H301V0Z" fill="white"/>
<path d="M301 311.233L241.805 271V311.806L181.362 271V311.806L120.902 271V311.806L60.4601 271V311.806L0 271V370H60.4601H120.902H164.742H181.362H225.184H241.805H285.645H301V311.233Z" fill="white"/>
<path d="M301 136H0V234H301V136Z" fill="white"/>
</svg>
