<svg id="Capa_1" data-name="Capa 1" xmlns="http://www.w3.org/2000/svg" viewBox="0 0 85.04 28.14"><defs><style>.cls-1{fill:#1d1d1b;}</style></defs><path class="cls-1" d="M17.59,24.24c-.23-.08-.44.07-.73.68h0c.06-.39,0-.63-.18-.69s-.45-.14-.86,1.13c-.15.44-.28.88-.42,1.33-.08.23-.1.27-.11.3s0,.09,0,.1.16-.55.52-.43L17,27c.26.08,0,.5.13.53s.05,0,.09-.16.07-.24.11-.37.18-.51.43-1.29S17.93,24.35,17.59,24.24ZM16.3,26.11,16,26c-.15-.05-.24-.09-.13-.44s.45-.8.68-.72.25.25.12.64l-.1.31C16.46,26.1,16.43,26.15,16.3,26.11Zm1.28-.29c-.16.5-.28.61-.52.53l-.29-.09c-.14-.05-.2-.08-.1-.38.31-.95.59-1,.75-1S17.75,25.31,17.58,25.82Z" transform="translate(-14.17 -14.27)"/><path class="cls-1" d="M20,21.51c-.14.16.18.34-.73,1.34-.27.29-.32.21-.45.1l-.26-.24c-.12-.1-.15-.11,0-.29l.27-.3c.39-.42.5-.12.61-.25s0-.14,0-.16l-.39-.29c-.06-.05-.09,0-.12,0s.1.26-.21.61l-.23.25c-.16.18-.17.16-.26.09L18,22.14c-.14-.13-.13-.15.31-.63.71-.79.66-.26.83-.45s0-.13,0-.15l-.21-.16s-.07,0-.12,0l-.82.93-1,1.07c-.05.06-.07.1-.05.12s.43-.44.61-.28l.95.86c.25.22-.14.43-.05.52s0,0,.09-.06c.2-.22.35-.4.46-.53s.41-.43,1-1.05c.3-.33.35-.72.19-.86A0,0,0,0,0,20,21.51Z" transform="translate(-14.17 -14.27)"/><path class="cls-1" d="M23.26,19.88c-.19.08,0,.37-1.2.94-.36.16-.38.07-.45-.09l-.53-1.16c-.09-.19.31-.26.26-.35s0,0-.14,0l-.56.26-.68.3c-.1.05-.15.1-.13.12s.56-.24.66,0L21,21.07c.14.31-.3.34-.25.46s0,0,.11,0l.63-.3,1.3-.59c.41-.18.61-.52.52-.72A.06.06,0,0,0,23.26,19.88Z" transform="translate(-14.17 -14.27)"/><path class="cls-1" d="M26.56,18.26s0-.05-.11-.05l-1.24.06c-.84,0-1.23,0-1.45.05s-.12,0-.12.05.62,0,.63.25l.05,1.27c0,.33-.41.2-.4.33s0,0,.1,0l.7,0c.24,0,.44,0,.65,0s.25,0,.25-.06-.62,0-.63-.28l0-.4c0-.16,0-.19.22-.2l.41,0c.57,0,.42.27.6.27s.09-.11.09-.14l-.06-.49c0-.07-.07-.06-.11-.06s-.11.26-.58.28h-.35c-.23,0-.23,0-.24-.13v-.38c0-.18,0-.19.67-.22,1.05,0,.64.3.9.28s.09-.09.09-.12Z" transform="translate(-14.17 -14.27)"/><path class="cls-1" d="M30.39,21.25l-.71-2.11c0-.11,0-.12-.09-.13s-.11,0-.16,0l-2,.95c-.19.09-.44,0-.46,0s.07.06.14.09a4.69,4.69,0,0,0,.45.18l.46.21c.11,0,.26.13.28.07s-.53-.25-.46-.43S28,20,28,20a.37.37,0,0,1,.38,0l1,.42c.13.06.14.09.22.36,0,.09.05.15,0,.2s-.41,0-.44.05.06.06.15.1l.55.22.65.28c.13.06.18.08.2,0S30.48,21.49,30.39,21.25Zm-.91-1.07s-.08,0-.17,0l-.69-.29c-.09,0-.16-.06-.15-.09a.26.26,0,0,1,.1-.07l.57-.28a.1.1,0,0,1,.07,0s0,0,0,0l.22.63S29.49,20.15,29.48,20.18Z" transform="translate(-14.17 -14.27)"/><path class="cls-1" d="M32.45,21.33c.13-.12.38,0,.62.25.63.7.31,1.1.4,1.19s.11.08.15,0l.23-.29c0-.05.08-.06,0-.12a1.92,1.92,0,0,0-.22-.18,6.13,6.13,0,0,0-.48-.69c-.43-.47-.9-.64-1.13-.43s-.07.5.17.92c.45.78.65,1.06.48,1.21s-.48,0-.77-.32a1.26,1.26,0,0,1-.37-1.17s0-.06,0-.13-.11,0-.13,0l-.16.38c0,.06,0,.07,0,.19a8.94,8.94,0,0,0,.55.75c.48.53,1,.73,1.26.49s.1-.58-.2-1.09S32.31,21.45,32.45,21.33Z" transform="translate(-14.17 -14.27)"/><path class="cls-1" d="M35.92,26.94c-.15-.48-.28-.82-.53-1.58l-.5-1.59c0-.08-.07-.06-.09-.06l-.37,0s-.11,0-.07.09.36,0,.56.56l.14.43c.07.22.07.27-.05.31l-1.21.4c-.31.1-.37-.53-.47-.5s0,.11,0,.2.14.38.25.72.16.53.23.73.07.26.13.24-.22-.66.1-.77l1.18-.38c.12,0,.15,0,.22.22l.14.44c.21.59-.13.52-.07.73s.13,0,.16,0l.22-.13S36,27,35.92,26.94Z" transform="translate(-14.17 -14.27)"/><path class="cls-1" d="M37,28.61v-.22h0a11.63,11.63,0,0,0-3.37-7.85,11.39,11.39,0,0,0-19.44,7.85h0v.37h0a11.41,11.41,0,0,0,22.82,0h0ZM16,31.43a1.55,1.55,0,0,1,0-1,.48.48,0,0,1,.28-.31l.12,0c.28,0,.68.27.9,1a2.72,2.72,0,0,1,.1.63,1.39,1.39,0,0,0,0,.15.08.08,0,0,0,0,0s0,0,.05,0a.15.15,0,0,1,0,.07h0l-.29.15-.05,0s0,0-.06-.06a.14.14,0,0,1,0-.12v0a1.16,1.16,0,0,0,.05-.89c-.12-.42-.36-.61-.55-.61h-.08c-.2.06-.45.39-.27,1a1.47,1.47,0,0,0,.37.64.23.23,0,0,1,.08.11.08.08,0,0,1,0,.07l0,0h0C16.58,32.41,16.24,32.12,16,31.43Zm1.13,2.28c0,.07,0,.12,0,.14h0s-.06,0-.1-.1L17,33.61c0-.08-.09-.18-.17-.31l-.11-.21a.56.56,0,0,1-.07-.13s0,0,0-.05,0,0,0,0h0s.06,0,.09.07.07.08.12.08h0l.72-.39c.06,0,0-.16,0-.25s-.06-.14,0-.16h0s.06,0,.09.1h0a1.62,1.62,0,0,1,.1.18l.08.16.08.15a2.39,2.39,0,0,1,.13.24c.05.07.06.1.05.13l0,0h0s-.05,0-.08-.07S18,33,17.91,33h0l-.72.39C17.07,33.48,17.11,33.59,17.17,33.71Zm2.19,1.51a.12.12,0,0,1,0-.14c0-.06,0-.13-.11-.3L19,34.56c0-.05-.08-.1-.1-.1l0,0-.59.5c-.08.07,0,.2.08.33s.07.11,0,.14h0s-.08,0-.13-.1l0,0a1.34,1.34,0,0,0-.11-.14L18,35l-.19-.23-.12-.13h0a.18.18,0,0,1-.05-.07.06.06,0,0,1,0-.08h0s.07,0,.12.08.13.13.19.13h0a.09.09,0,0,0,.06,0l.6-.5s.05,0,0-.15l-.19-.22c-.11-.14-.19-.15-.24-.15H18a.14.14,0,0,1-.1,0,.19.19,0,0,1,0-.08s0,0,.05,0h0l.21-.1,0,0a.07.07,0,0,1,.06,0c.09.11.17.2.25.31l.41.49.42.49.26.31a.08.08,0,0,1,0,.1l-.1.14a.1.1,0,0,1-.08.06S19.38,35.24,19.36,35.22Zm-1-6.5a7.39,7.39,0,1,1,9.93,6.93,7.38,7.38,0,0,1-9.93-6.93Zm3.17,7.73s0,0,0,0h-.06a.55.55,0,0,0-.22-.05h-.1l-.61.09s-.05,0-.08.05l-.15.2c-.05.08,0,.15.14.24s.13.11.1.16h0a.22.22,0,0,1-.11-.05v0l-.4-.28-.31-.22-.1-.07s-.1-.07-.07-.11l0,0a.28.28,0,0,1,.12.05.4.4,0,0,0,.18.07h0a.1.1,0,0,0,.08-.05l.13-.18s0,0,0-.09l-.15-.73a.46.46,0,0,0-.14-.21s-.08-.08,0-.12l0,0s.06,0,.12.07l.07.05.18.14.41.28s.05,0,.05.06a0,0,0,0,1,0,0s0,0,0,0l-.09,0-.08,0s0,0,0,.07l.07.44c0,.06,0,.09,0,.1h.07l.42,0c.07,0,.08,0,.08,0s-.06-.11-.11-.16-.11-.1-.08-.14.05,0,.11,0l0,0,.19.14.24.16.09.06S21.54,36.41,21.51,36.45Zm2.94,1,0,.33c0,.06,0,.08-.06.08h0a.14.14,0,0,1-.1-.08h0a1.12,1.12,0,0,0-.74-.51,1.18,1.18,0,0,0-.31,0c-.27,0-.48.11-.52.28s.1.59.73.76a1.81,1.81,0,0,0,.39,0,1.37,1.37,0,0,0,.34,0,.37.37,0,0,1,.14,0s.08,0,.07.06-.23.15-.55.15a2.51,2.51,0,0,1-.63-.09c-.9-.23-1-.68-1-.88s.3-.43.82-.43a1.94,1.94,0,0,1,.56.08,3.15,3.15,0,0,1,.59.23.48.48,0,0,0,.14.06s0,0,.05,0a.08.08,0,0,1,.07,0l.06,0h0Zm1.36,1.24h0c-.68,0-1.13-.23-1.13-.58s.49-.7,1.28-.71H26c.68,0,1.14.24,1.15.59C27.13,38.11,27,38.64,25.81,38.66Zm3.87-2c-.08,0-.14.08-.11.17l.12.36c.15.44-.13.75-.9,1a2.14,2.14,0,0,1-.63.12.46.46,0,0,1-.49-.29l-.17-.53s0,0-.08,0l-.14,0h-.1s-.06,0-.06,0,0-.06.07-.09l.1,0,.35-.11.33-.11.13,0a.05.05,0,0,1,.08,0s0,.06-.07.08-.18.08-.13.24l.12.35a.37.37,0,0,0,.4.29,1.59,1.59,0,0,0,.42-.08c.64-.22.61-.49.54-.73l-.11-.33s0-.06-.13-.06l-.17,0H29s-.06,0-.06,0v0a.13.13,0,0,1,.09,0h0l.26-.08.25-.08.12,0h.06a.05.05,0,0,1,.05,0S29.72,36.64,29.68,36.66Zm2.86-.6a.11.11,0,0,1-.09,0l-1.85.24h-.05l.34.47a.17.17,0,0,0,.15.08.49.49,0,0,0,.22-.08.3.3,0,0,1,.11,0s0,0,0,0a0,0,0,0,1,0,0s0,.05-.1.1h0l-.19.14-.14.09-.13.1-.1.08h0s-.06,0-.09,0l0,0s0-.09.06-.15.13-.15.09-.22l-.38-.52a.19.19,0,0,0-.16-.1.55.55,0,0,0-.18.06.26.26,0,0,1-.1,0l0,0s0,0,0-.1l.08,0,.08-.06.09-.07.2-.14c.06,0,.08,0,.11,0h0l1.56-.18.09,0,0,0-.33-.46a.06.06,0,0,0,0,0,.54.54,0,0,0-.22.08l-.13.05h0a.08.08,0,0,1,0,0s0,0,0-.06l.06,0,.26-.18L32,34.9l0,0,.08,0s0,0,0,0,0,.07,0,.11-.12.14-.07.21l.56.78S32.6,36,32.54,36.06Zm1.14-1.28c-.41.53-.75.64-1,.64h0a.42.42,0,0,1-.26-.08.58.58,0,0,1-.18-.52,1.71,1.71,0,0,1,.4-.88,2.67,2.67,0,0,1,.45-.45l.11-.1s0,0,0,0a.13.13,0,0,1,0-.08l0,0h0l.29.15s0,0,0,0,0,0,0,.06-.08,0-.11.06h0a1.16,1.16,0,0,0-.76.48,1,1,0,0,0-.24.53.34.34,0,0,0,.12.32.39.39,0,0,0,.25.08h0a1,1,0,0,0,.73-.44,1.48,1.48,0,0,0,.31-.67.34.34,0,0,1,0-.14s0,0,.06,0h0a.24.24,0,0,1,0,.07A1.75,1.75,0,0,1,33.68,34.78ZM35,32.6a1,1,0,0,1-.07.15l-.16.32a2,2,0,0,0-.1.21l-.07.13a0,0,0,0,1,0,0h0s0-.07,0-.12,0-.15,0-.18l-.73-.36c-.07,0-.14.08-.2.16s-.07.11-.11.11h0l0,0s0-.07,0-.12h0l.09-.18.09-.16a1,1,0,0,1,.07-.15l.12-.25c0-.08.06-.11.09-.11h0s0,.08,0,.13,0,.14,0,.17l.73.36.05,0c.07,0,.13-.11.18-.18s0-.1.09-.1h0S35,32.55,35,32.6Zm.59-1.77c-.09.32-.15.51-.19.65s0,.15-.06.21,0,.09,0,.15l-.07.27s0,.08-.06.08h0c-.06,0-.05-.08,0-.13s0-.15-.08-.18l-.78-.21h0s-.1.11-.13.19S34,32,34,32h0l0,0a.2.2,0,0,1,0-.13c0-.06,0-.14.07-.22s0-.16.06-.22l.08-.32s0,0,0,0,0-.11.06-.11h0s0,.07,0,.13,0,.12,0,.14l.79.22h.06s.06,0,.11-.18c.16-.57.09-.74.05-.83a.16.16,0,0,1,0-.12.07.07,0,0,1,.09-.05.28.28,0,0,1,.16.21A.67.67,0,0,1,35.56,30.83Zm0-2.44a.6.6,0,0,1-.6.6.59.59,0,0,1-.59-.6h-1a7.68,7.68,0,0,0-15.35,0H16.76a.59.59,0,0,1-.59.6.6.6,0,0,1-.6-.6H14.46v-.05h0a11.13,11.13,0,0,1,22.25.05Z" transform="translate(-14.17 -14.27)"/><path class="cls-1" d="M25.85,37.5h0c-.47,0-.71.18-.7.47s.16.56.76.56h0c.5,0,.74-.19.74-.5S26.23,37.5,25.85,37.5Z" transform="translate(-14.17 -14.27)"/><path class="cls-1" d="M26.18,22.57c.07-.05,0-.17.12-.14s0,.19.14.21.16-.07.17.05-.07.07-.05.12.12.08.2.07-.11.13-.08.24.1.1.1.19-.15.05-.16.13l0,.14c-.17-.06-.27.13-.39.21s-.15,0-.19-.06a4.67,4.67,0,0,1-.51-.23c0-.07.07-.13,0-.2s-.05-.06-.05-.09.05,0,.07,0a.12.12,0,0,0,.07.07s.09,0,.08-.08h0c.1,0,.11.2.24.14s0,.06,0,.1-.16-.06-.27-.05,0,.09-.05.13c.12,0,.29.23.37,0a1.74,1.74,0,0,0,.12-.14s0,0,.06,0a.11.11,0,0,0,0,.14.52.52,0,0,0,.29-.48h0a.57.57,0,0,1-.22.38c-.07,0-.05-.07,0-.13a.57.57,0,0,0,.1-.37c-.05-.13-.11-.32-.28-.33s-.05-.18-.12-.25h0C26.1,22.4,26.14,22.5,26.18,22.57Z" transform="translate(-14.17 -14.27)"/><path class="cls-1" d="M26,22.72c0,.17-.23.2-.33.29a.26.26,0,0,0,.19,0c0-.09.1,0,.16,0s.09,0,.12,0,.09-.1,0-.14h0s0,0,.06,0a.18.18,0,0,1,.07.2.24.24,0,0,1-.17.14.31.31,0,0,1-.23-.08.91.91,0,0,1-.33,0c-.05-.05-.12-.09-.14-.16a1.49,1.49,0,0,0,.5-.26Z" transform="translate(-14.17 -14.27)"/><path class="cls-1" d="M25,23.05a1.84,1.84,0,0,1,.31.52c0,.1.19-.07.17.09s-.11.05-.17,0c-.21-.12-.24-.4-.44-.54a.8.8,0,0,0-.31,0s-.07,0-.07-.07.11-.06.17-.1A1.32,1.32,0,0,1,25,23.05Z" transform="translate(-14.17 -14.27)"/><path class="cls-1" d="M25.35,23.88c.11,0,.19-.07.29-.07s0,0,0,.07-.3.08-.42.18h0c-.11-.18-.23-.42-.44-.49a.81.81,0,0,0-.3.13c-.06,0,0-.12,0-.18a.5.5,0,0,1,.43-.07C25.07,23.5,25.15,23.78,25.35,23.88Z" transform="translate(-14.17 -14.27)"/><path class="cls-1" d="M26.9,23.73a.45.45,0,0,0,0,.45.3.3,0,0,1-.23.27.1.1,0,0,1-.08-.05c0-.07.07,0,.1-.06a.09.09,0,0,0,0-.14.34.34,0,0,1,0-.28C26.74,23.84,26.81,23.74,26.9,23.73Z" transform="translate(-14.17 -14.27)"/><path class="cls-1" d="M27.18,23.8a.4.4,0,0,1,0,.37c-.06,0-.1.11-.17.13s-.05,0-.05-.05.14-.09.15-.18,0-.21-.05-.32l0,0S27.13,23.81,27.18,23.8Z" transform="translate(-14.17 -14.27)"/><path class="cls-1" d="M21.43,24a.52.52,0,0,0,.08.42l.07,0a1,1,0,0,1,.46-.05l-.11.14.65-.09c.05,0,0,.07,0,.11s.05.21,0,.29,0-.09-.09-.12-.18-.1-.27-.08a3,3,0,0,0-.62.26.57.57,0,0,1,.08-.25.57.57,0,0,0-.4.11c0-.08.11-.14.11-.23a.45.45,0,0,1-.07-.38A1.18,1.18,0,0,1,21.4,24S21.41,24,21.43,24Z" transform="translate(-14.17 -14.27)"/><path class="cls-1" d="M26.5,23.93c0,.08,0,.22-.12.23a.13.13,0,0,1-.07-.09c.1,0,.09-.14.17-.17Z" transform="translate(-14.17 -14.27)"/><path class="cls-1" d="M26.17,24c0,.28.38.39.4.66a.76.76,0,0,1-.11.7c.07,0,.16,0,.24,0s0,.08-.06.11-.19,0-.21-.05,0,0,0-.07h0a.54.54,0,0,1-.36.2c-.09,0-.2-.05-.26-.13l0-.06h0c.05,0,.08.07.14.07a.4.4,0,0,0,.33-.11.51.51,0,0,0,.15-.52,4.38,4.38,0,0,0-.37-.67c-.08,0-.16,0-.24,0s-.12.11-.21.1c-.09.26.25.27.38.39a.63.63,0,0,1,.24.38c0,.1-.05.23-.17.24a.34.34,0,0,1-.3-.1c0-.08-.1-.17,0-.26l0,0c.07,0,0,.15.07.19a.29.29,0,0,0,.24.05c.06,0,.07-.09.1-.14s-.37-.13-.51-.3a.52.52,0,0,1-.14-.46s0-.12.07-.11a.29.29,0,0,1,.13-.14A1.3,1.3,0,0,1,26.17,24Z" transform="translate(-14.17 -14.27)"/><path class="cls-1" d="M20.87,24.09a1,1,0,0,0,.39.51c-.08.06-.21-.1-.24,0a.6.6,0,0,1-.09.37.48.48,0,0,0,.09.5.88.88,0,0,0,.45.25s0,0,0,0-.2,0-.28.05a.12.12,0,0,0,0,.18.38.38,0,0,0,.37,0c.19,0,.07-.41.3-.24a.34.34,0,0,0,.22-.07c-.18-.16-.48-.07-.69-.16,0,0,0-.06.06-.07a.35.35,0,0,1-.21-.29s0-.09,0-.09.12.16.22.17c.36,0,.71-.2,1.07-.08,0-.05-.05-.06-.08-.09a2.05,2.05,0,0,0-.61,0c0-.05,0-.07.09-.09l.65-.06c0,.05,0,.11,0,.16s.09.09.1.15a2.49,2.49,0,0,0-.55,0,1,1,0,0,0-.31.09.45.45,0,0,0,.33.22s0,0,0,0a.27.27,0,0,1-.05.23.45.45,0,0,1-.34.17,1.06,1.06,0,0,1-.12.2l.84-.29a.17.17,0,0,1,.1,0v0l-.57.26a.71.71,0,0,0-.09.55.49.49,0,0,0,.19.26.75.75,0,0,1,.76.15c.13.12,0,.33.22.43a.76.76,0,0,0,.43.23.37.37,0,0,1,.26.23c0,.1,0,.2,0,.29a.69.69,0,0,0,.29.07l0,0c-.16,0-.3.1-.45.14s-.09-.06-.11-.12.06-.33-.05-.48-.48-.1-.74-.21c-.1-.18-.2-.5-.48-.47a.52.52,0,0,0-.44.25.3.3,0,0,0,0,.26.63.63,0,0,0,.67.08s0,0,0,0a.89.89,0,0,1-.71.17c0,.06.14.08.22.1s.09,0,.1,0a.62.62,0,0,1-.53,0l-.11-.11c-.14,0-.26-.05-.4-.05s-.16-.16-.11-.29a.33.33,0,0,1,.11-.13h.15l0,0c-.07,0-.12.06-.15.12s0,.18,0,.23c.24-.09.3-.36.4-.57s.21-.26.05-.38a.67.67,0,0,1-.18-.44,1.1,1.1,0,0,1,.29-.28h0a1.42,1.42,0,0,0-.33.21c-.07,0-.09-.13-.16-.19a.75.75,0,0,0-.56-.25c0-.08.07-.16.14-.21a1,1,0,0,1-.23-.84l.13-.3a3.2,3.2,0,0,1,0-.69Z" transform="translate(-14.17 -14.27)"/><path class="cls-1" d="M26.62,24.25a.18.18,0,0,1-.06.09c-.07,0-.07-.08-.09-.13s.09-.11.13-.15S26.62,24.19,26.62,24.25Z" transform="translate(-14.17 -14.27)"/><path class="cls-1" d="M30,24.42s0,.07,0,.08-.2.08-.25,0" transform="translate(-14.17 -14.27)"/><path class="cls-1" d="M30.33,24.2a.66.66,0,0,0,.33.45h.22c.08.07-.1.16,0,.23s.31.06.24.24a.2.2,0,0,0-.06.14c0,.13.26.23,0,.32s.11.23.07.37-.17.08-.2.17.09.15,0,.25a.33.33,0,0,0-.28.11c0,.09.11.1,0,.19s-.21.3-.34.45-.09-.07-.14-.07-.12,0-.14-.07a4,4,0,0,0-.36-.18,2,2,0,0,0,.25.26s0,.08,0,.07A.81.81,0,0,0,30,28l.11.13h0c.07.08.15.07.2.19a2.29,2.29,0,0,1,.94,1.77,1.18,1.18,0,0,1-.54,1.05,1.5,1.5,0,0,1-.38.19c.06,0,.16,0,.18.1s0,.32.06.46h-.06s0,0,0,0h0c0-.05-.05-.06-.08-.09s-.07-.27-.24-.27a2,2,0,0,0-1.19.22,1.93,1.93,0,0,1-1.69.34,4.54,4.54,0,0,0-1.58-.53,3.45,3.45,0,0,0-1.36.43c-.34.12-.85.28-1.19,0a1.6,1.6,0,0,1-.59-.42,1.17,1.17,0,0,0-1.76.37l-.05,0a1.2,1.2,0,0,1,.36-.55s-.11,0-.16,0-.06.09-.08.13,0,.05,0,.09-.11-.05-.13-.09,0-.09,0-.15.14-.1.11-.17,0-.12,0-.17a.33.33,0,0,1,.19-.21c.06,0,.12,0,.17,0a.23.23,0,0,1,0,.11.29.29,0,0,0-.18.07c-.07.06,0,.15,0,.23s.13.11.13.19a1.92,1.92,0,0,1,.42-.16c-.06-.08-.18-.07-.25-.15s0-.06,0-.06.15,0,.21,0c0-.17-.16-.29-.25-.44a.36.36,0,0,1,.25-.05.56.56,0,0,1,.32.5s0,0-.05,0a.57.57,0,0,0-.15-.16c0,.09,0,.21,0,.31a1.46,1.46,0,0,1,1.12.53,1.22,1.22,0,0,0,1.19.21c-.11-.08,0-.21,0-.31a.58.58,0,0,1-.56.24c-.11,0-.27,0-.3-.14s.14,0,.23,0a.48.48,0,0,0,.45-.19.59.59,0,0,0-.1-.62c0-.15-.22-.14-.31-.24a.79.79,0,0,0-.79.21.57.57,0,0,0-.13.21c.1.05.17,0,.27,0s-.13.12-.18.2-.16,0-.22-.07,0-.1,0-.13-.06.07-.1.07,0-.23-.06-.32l0-.07A1.27,1.27,0,0,0,22,31S22,31,22,31a.75.75,0,0,0-.05-.42c.05,0,.06,0,.11.06a.34.34,0,0,0,.23-.21s.05,0,.06,0,.05.33.07.48a1.3,1.3,0,0,1,.65-.35c.19,0,.41-.05.58.05s.31.23.48.33a1.36,1.36,0,0,0,1.17.25s0,0,0,.08a.93.93,0,0,1-.78.06.68.68,0,0,1-.25-.11s0,.06,0,.1.28,0,.21.18a.48.48,0,0,1-.39-.18c0,.22.06.41,0,.62h.09a3.62,3.62,0,0,1,1.66-.43c.08,0,.2,0,.25.06l.17,0c.48.14.88.5,1.43.45a1.61,1.61,0,0,0,.39,0,.66.66,0,0,1-.44-.39,1.51,1.51,0,0,1,0-.3,1.35,1.35,0,0,0-.14.59.16.16,0,0,1-.07.07.22.22,0,0,1-.19-.09c.19-.14.21-.36.27-.57-.09.07-.14.18-.22.25s-.05,0-.06-.05.05-.09,0-.13a1,1,0,0,1-.34.2.07.07,0,0,1,0-.06c.05,0,.14,0,.17-.11s-.08,0-.13,0a.87.87,0,0,1-.51-.17v-.05a.85.85,0,0,1,.23,0c.72.1,1.1-.7,1.83-.61a2.62,2.62,0,0,1,.48.13c.18.17.44.3.51.54h0s-.05,0-.07,0c-.24-.29-.6-.63-1-.51-.21,0-.36.18-.5.34s-.15.47,0,.65a.75.75,0,0,0,.52.23c.15,0,.08-.13.18-.19s.06-.21,0-.3a.23.23,0,0,0-.29-.12.28.28,0,0,0-.16.14c0,.05,0,.07.07.09s.21-.17.22,0-.14.1-.22.09A.25.25,0,0,1,28,31.5a.28.28,0,0,1,0-.25.37.37,0,0,1,.38-.11c.24.08.23.36.24.56l-.05.12h.05c.27-.12.52-.28.8-.38a2.14,2.14,0,0,1,.72-.14s0,0,0-.08a1,1,0,0,0,.7-.72,1.57,1.57,0,0,0-.55-1.61l0-.06h.06l.34.22v0a4.73,4.73,0,0,0-1.31-1.25.67.67,0,0,0-.61.16c0,.14-.17,0-.26,0-.41,0-.72.39-.87.72a.86.86,0,0,0,0,.45l0,.08a.17.17,0,0,1-.11-.15,1.42,1.42,0,0,0,0-.2c-.05.06-.12.13-.11.22s0,.16-.13.2a.18.18,0,0,1,0-.16c.07-.28.11-.61.37-.77s0-.16.07-.24a1.46,1.46,0,0,1,.76-.49,1,1,0,0,1,.18,0c.07-.12.25-.15.18-.31l0-.08c.07-.07.16,0,.24,0a.79.79,0,0,0,.7-.43.58.58,0,0,0,0-.14c-.18-.12-.41-.12-.59-.23,0,0,0,0,0,0l.07,0a3.62,3.62,0,0,1,.56.17,2.6,2.6,0,0,0,.16-.47s.05-.1.12-.1.13,0,.19.06.22-.2.29-.31a.55.55,0,0,1-.32-.08c0-.09.16,0,.21-.1a.64.64,0,0,0,.23-.62s.05,0,.06.05.08.12.07.19a1.32,1.32,0,0,1-.05.71,1.21,1.21,0,0,1-.32.44v0c.08,0,.11-.12.21-.09s.17,0,.24-.07c-.09-.08,0-.2,0-.28a.34.34,0,0,0,.2-.09c-.06,0-.14-.05-.15-.12s0-.26.13-.32l0-.05c-.07,0-.16,0-.19-.06s0-.06,0-.07-.06-.13,0-.16a.13.13,0,0,0,.08,0c-.21-.08-.33-.33-.54-.43s-.14-.08-.23-.08.07-.11.06-.2a.48.48,0,0,0,0-.24C30.28,24,30.28,24.16,30.33,24.2Z" transform="translate(-14.17 -14.27)"/><path class="cls-1" d="M27.46,24.31v0c-.08,0-.19,0-.26,0s0,0,0,0A.21.21,0,0,1,27.46,24.31Z" transform="translate(-14.17 -14.27)"/><path class="cls-1" d="M27,24.4c.1,0,.15.12.26.08a.17.17,0,0,1,.11.12v.11c-.1,0-.2-.16-.34-.14s-.22-.12-.1-.21S27,24.39,27,24.4Z" transform="translate(-14.17 -14.27)"/><path class="cls-1" d="M26.81,24.52a.21.21,0,0,1-.09.18c-.06,0,0-.06-.07-.1S26.74,24.44,26.81,24.52Z" transform="translate(-14.17 -14.27)"/><path class="cls-1" d="M29.91,24.82v0a.77.77,0,0,1-.23-.1.38.38,0,0,1-.17.23,1.67,1.67,0,0,1-.77,0h0a.06.06,0,0,0-.06,0s0,0,0,.06-.06.12-.07.19a.15.15,0,0,1,0,.09.25.25,0,0,1-.11-.21c.18,0-.06-.28.16-.25s.28-.05.44,0a.42.42,0,0,0,.29,0,.13.13,0,0,0,.06-.11.1.1,0,0,1-.11-.07c0-.05.08-.05.11-.08s.28.11.38.23Z" transform="translate(-14.17 -14.27)"/><path class="cls-1" d="M26.84,24.91s-.07.07-.12.07-.08-.09,0-.13.1,0,.15-.07S26.83,24.87,26.84,24.91Z" transform="translate(-14.17 -14.27)"/><path class="cls-1" d="M30.34,24.89s0,.06,0,.08a.31.31,0,0,0-.26.18c0,.06.08.11,0,.17a.28.28,0,0,1-.19-.16c0-.09.06-.16.11-.2A.55.55,0,0,1,30.34,24.89Z" transform="translate(-14.17 -14.27)"/><path class="cls-1" d="M26.83,25.17c0,.07-.13.06-.19.07a.11.11,0,0,1,0-.12c.06-.06.13,0,.18,0A.06.06,0,0,1,26.83,25.17Z" transform="translate(-14.17 -14.27)"/><path class="cls-1" d="M22.72,25.41c0,.09-.11.22,0,.32s0,0,0,0,0,0,0,.05-.07-.06-.1-.09l0-.12c-.06,0-.16.05-.22,0s0,0,0-.06a.5.5,0,0,0,.39-.13Z" transform="translate(-14.17 -14.27)"/><path class="cls-1" d="M29.3,25.41c0,.1-.15,0-.19.12a1.81,1.81,0,0,1,.87,0c.08.07,0,.14,0,.21s-.3.1-.19.26a.31.31,0,0,1-.07.14h0c0-.07.06-.17,0-.16s-.25-.15-.3,0v.07l-.15,0c0-.07-.07-.15,0-.21s.09.06.12,0,.09,0,.15,0l.41-.12a1.41,1.41,0,0,0-.82-.09.31.31,0,0,1-.16-.06c0-.06.05-.1.09-.12a.52.52,0,0,1,.3-.06Z" transform="translate(-14.17 -14.27)"/><path class="cls-1" d="M26.81,25.54c.07,0,.2-.06.22,0v.11c-.83,0-1.64,0-2.46,0,0,0-.07,0-.1,0s-.06-.15,0-.18C25.28,25.57,26.07,25.53,26.81,25.54Z" transform="translate(-14.17 -14.27)"/><path class="cls-1" d="M20.12,26.66a1.89,1.89,0,0,1-.34,1.79.54.54,0,0,0,0,.45c.09.11.22.1.33.15s0,0,0,.06-.07,0-.06,0-.15,0-.22-.09-.26-.14-.28-.28c-.06-.53.48-.86.43-1.41a1.49,1.49,0,0,0-.39-1.06s0,0,0,0A.58.58,0,0,1,20.12,26.66Z" transform="translate(-14.17 -14.27)"/><path class="cls-1" d="M24.47,26.36c.05.1,0,.21,0,.31s0,0,0,0c-.16-.08,0-.32-.18-.41s0,0,0,0S24.45,26.3,24.47,26.36Z" transform="translate(-14.17 -14.27)"/><path class="cls-1" d="M30.16,26.25c0,.05,0,.14,0,.18s.12.1.2.1,0-.11.1-.08l.09,0c-.06,0-.14.07-.21.12a2,2,0,0,1-.3-.2c.05-.05,0-.12,0-.17l0,0Z" transform="translate(-14.17 -14.27)"/><path class="cls-1" d="M28.08,26.64c0,.11-.16.15-.16.27s0,.11,0,.18-.09-.09-.13-.14,0-.23,0-.35-.11-.22.06-.21Z" transform="translate(-14.17 -14.27)"/><path class="cls-1" d="M19.73,27.12l.1.38c0,.09,0,.21-.1.24s0-.19-.06-.28a1,1,0,0,1-.05-.48s.05,0,.07,0S19.71,27.07,19.73,27.12Z" transform="translate(-14.17 -14.27)"/><path class="cls-1" d="M30.36,27.21s0,0,0,0,0,0,0,0a0,0,0,0,0,0,0l0,0h0c.07.12-.12.09-.14.2a.15.15,0,0,0,0,.16c.05.08.26,0,.18.17s-.06.07-.06.12.19,0,.24.08-.07.21,0,.32.14,0,.22,0,.08,0,.11,0,.05.05,0,.09h0c0,.08,0,.14,0,.23a.49.49,0,0,0,.36.05c.1.07,0,.14,0,.21s-.05.29.11.3.27,0,.23.11-.12.1-.15.15.13.17.19.25a.06.06,0,0,1,.08.06c0,.12-.23.18-.2.33a1.06,1.06,0,0,0,.25,0c0,.07,0,.14-.07.2s-.19.13-.26.19.18,0,.2.11-.2.28-.33.35c0,0,.08.08.05.14a2.07,2.07,0,0,1-.38.12s.05.06,0,.11a.31.31,0,0,1-.31,0v0a.37.37,0,0,0,.21-.06c0-.08-.15,0-.11-.13s.15-.19.24-.1.11,0,.15,0l-.12-.1c.08,0,.08-.21.2-.21a.66.66,0,0,0,.21-.08.45.45,0,0,1-.23-.11c0-.1.1-.18.08-.28a.2.2,0,0,0,.21,0c-.07,0-.13,0-.19,0V29.8c.06,0,0-.07.08-.05s.08,0,.1-.08-.07,0-.11,0-.11-.24-.15-.35,0-.07,0-.09A.44.44,0,0,1,31.1,29c-.05,0,0-.08-.05-.1h0a.38.38,0,0,0,0-.1.22.22,0,0,0-.17,0c-.07,0-.07-.1-.13-.11s-.07-.11,0-.19l0,0a.56.56,0,0,1-.22,0l-.13-.14s0-.13,0-.17a.49.49,0,0,0-.21,0s-.1,0-.1-.07a.45.45,0,0,1,.13-.22c-.08-.07-.24,0-.28-.12a.53.53,0,0,1,.05-.26c0-.06.12,0,.17-.06s-.1-.14-.06-.21.13.13.21.13Z" transform="translate(-14.17 -14.27)"/><path class="cls-1" d="M21.56,27.3c0,.05-.11.05-.12.12s.06.14.06.2a.27.27,0,0,1-.21-.13.29.29,0,0,1,0-.18C21.37,27.22,21.53,27.22,21.56,27.3Z" transform="translate(-14.17 -14.27)"/><path class="cls-1" d="M19.62,27.74a.53.53,0,0,1,0,.37s-.07,0-.08-.05a.47.47,0,0,0,0-.46s0,0,.06,0A.59.59,0,0,1,19.62,27.74Z" transform="translate(-14.17 -14.27)"/><path class="cls-1" d="M32.22,27.65c0,.05,0,.1,0,.13a.37.37,0,0,1-.26.12c-.05-.07,0-.08.07-.15s0-.26-.08-.37.05,0,.05,0A.41.41,0,0,1,32.22,27.65Z" transform="translate(-14.17 -14.27)"/><path class="cls-1" d="M30.85,27.43a.41.41,0,0,1,.28.28c0,.12,0,.29,0,.41s0,.09.06.13.12,0,.16.06a1.52,1.52,0,0,1-.22.22s0,0-.07-.05.06-.08.1-.11a.29.29,0,0,1-.21-.25.65.65,0,0,0-.12-.56c0-.07-.15,0-.16-.12l.17,0Z" transform="translate(-14.17 -14.27)"/><path class="cls-1" d="M31.49,27.7a.25.25,0,0,1,0,.12c0,.08-.05.15,0,.23s.08.07.06.11a.26.26,0,0,1-.22-.12.3.3,0,0,1,0-.21c.05,0,0-.07.08-.11s-.11-.12-.07-.19S31.44,27.64,31.49,27.7Z" transform="translate(-14.17 -14.27)"/><path class="cls-1" d="M31.83,27.82c0,.08-.09.12,0,.2s0,0,0,0,0-.17-.09-.23.1-.17,0-.27l0,0A.31.31,0,0,1,31.83,27.82Z" transform="translate(-14.17 -14.27)"/><path class="cls-1" d="M22.94,28a.92.92,0,0,1-.4.58.75.75,0,0,1,.34.27,1,1,0,0,1,0,.8c.14.08.19.23.3.35a.89.89,0,0,0,.38-.26c.06,0,.09,0,.13.05s0,.14.06.22,0,.27-.13.25-.06-.21-.14-.28-.33.3-.52.14-.17-.35-.36-.41c0-.3.2-.59,0-.89a.44.44,0,0,0-.19-.17c-.25,0-.33.28-.4.48s-.2.25-.35.25a0,0,0,0,1,0-.07.78.78,0,0,0,.23-.6c.09-.25.38-.19.56-.3A1.53,1.53,0,0,0,22.9,28Z" transform="translate(-14.17 -14.27)"/><path class="cls-1" d="M21.3,28.17c0,.06-.06,0-.08,0s0,.11-.06.17.1.09.1.18-.13-.05-.19-.1a.22.22,0,0,1-.05-.14c0-.07,0-.18.13-.19S21.28,28.09,21.3,28.17Z" transform="translate(-14.17 -14.27)"/><path class="cls-1" d="M20.94,28.22c0,.11-.08.09-.11.17-.35.34-.14.95-.2,1.39a.65.65,0,0,1-.24.43s-.09.05-.07.12a1.38,1.38,0,0,0-.43.53c0,.08,0,.14.05.22a1.06,1.06,0,0,1,0,.4c-.05,0-.07,0-.08-.05a1.71,1.71,0,0,0-.1-.46c0-.12-.28-.22-.1-.35s.68-.35.8-.7-.24-.64-.2-1a1.3,1.3,0,0,1,.63-.75S20.93,28.19,20.94,28.22Z" transform="translate(-14.17 -14.27)"/><path class="cls-1" d="M28.92,28.15a.65.65,0,0,0,.2.59v0c.46.36,1.11.58,1.33,1.17,0,.11.13.21.09.32a.43.43,0,0,1-.05.38h0c0-.13.09-.28,0-.42a1,1,0,0,0-.6-.58.73.73,0,0,0-.37.61.68.68,0,0,0,.39.57s0,.05,0,.08c-.19,0-.29-.16-.42-.29a1.2,1.2,0,0,1-.09-.5.08.08,0,0,1-.11,0,.92.92,0,0,1,.39-.52,3.16,3.16,0,0,1-1-.69,1.66,1.66,0,0,1-.34-.66c0-.06,0-.07.09-.06s.22,0,.31.06S28.84,28.07,28.92,28.15Z" transform="translate(-14.17 -14.27)"/><path class="cls-1" d="M32.29,28.2c.07,0,.07-.13.15-.08a.18.18,0,0,1,0,.17c-.07.06-.15.15-.24.09s-.09-.23-.25-.19a.06.06,0,0,1,0-.06c.07,0,.12-.05.19,0S32.19,28.24,32.29,28.2Z" transform="translate(-14.17 -14.27)"/><path class="cls-1" d="M32.06,28.52s0,.07,0,.07h0c-.17,0-.25-.17-.32-.28l.09,0C31.93,28.28,32,28.45,32.06,28.52Z" transform="translate(-14.17 -14.27)"/><path class="cls-1" d="M27.33,28.5c0,.08-.08.06-.11.12l-.23.3s0,0-.06,0A.3.3,0,0,1,27,28.6a.47.47,0,0,1,.27-.14Z" transform="translate(-14.17 -14.27)"/><path class="cls-1" d="M31.67,28.47c0,.06.07.1,0,.15s.06,0,.11.06.32,0,.37.19a.23.23,0,0,1,0,.2c-.1,0-.1-.16-.21-.19s-.36,0-.43-.16,0-.15-.08-.18h0s-.1,0-.1-.07A.25.25,0,0,1,31.67,28.47Z" transform="translate(-14.17 -14.27)"/><path class="cls-1" d="M21.43,28.67c0,.09-.12.16-.07.26s.1.12.06.16a.25.25,0,0,1-.2-.14.28.28,0,0,1,0-.22C21.28,28.67,21.37,28.63,21.43,28.67Z" transform="translate(-14.17 -14.27)"/><path class="cls-1" d="M26.21,28.61a.82.82,0,0,0-.05.38c-.05,0-.09,0-.1-.06a.39.39,0,0,1,0-.3C26.1,28.58,26.2,28.52,26.21,28.61Z" transform="translate(-14.17 -14.27)"/><path class="cls-1" d="M26.48,28.73l0,.07c.07,0,.12,0,.19,0s0,.07,0,.09a.28.28,0,0,1-.28,0c0-.12-.18-.07-.13-.2S26.46,28.61,26.48,28.73Z" transform="translate(-14.17 -14.27)"/><path class="cls-1" d="M23.8,28.8a8.11,8.11,0,0,1,.05.86,1.16,1.16,0,0,0,.46.71,5.69,5.69,0,0,0,1.05.58h0c.19,0,.36.26.55.09l.14-.09c-.2-.07-.4,0-.58-.08v0a1.23,1.23,0,0,1,.71,0l0,0a1.36,1.36,0,0,0,.34-.21,1.22,1.22,0,0,0-.51-.05l0,0a1.31,1.31,0,0,1,.68,0,2.45,2.45,0,0,0,.76-.58,3.09,3.09,0,0,0,.08-.61s0,0,.06,0l0,.09c0,.33.07.82-.33,1a7.09,7.09,0,0,1-1.22.64,2,2,0,0,1-.29.15.05.05,0,0,0-.08,0,6.21,6.21,0,0,1-1.94-1,.73.73,0,0,0-.1-.54s0-.09,0-.14c0-.24,0-.46,0-.69C23.7,28.75,23.79,28.74,23.8,28.8Z" transform="translate(-14.17 -14.27)"/><path class="cls-1" d="M25.49,29v.06c.14,0,.32-.1.43,0s0,.06,0,.07a.76.76,0,0,0-.59.12.14.14,0,0,1-.09-.09,1.54,1.54,0,0,0-1,.39v0l-.09.06c0-.08.09-.12.13-.19a2.37,2.37,0,0,1,.93-.42A.54.54,0,0,1,25.49,29Z" transform="translate(-14.17 -14.27)"/><path class="cls-1" d="M26.83,29.14c.08.1-.08.13-.08.21a1.22,1.22,0,0,0-.15.68v0c-.15-.12-.1-.35-.07-.5a1.44,1.44,0,0,1,.15-.36c-.05-.06-.15,0-.21-.05h-.05s0,0,0,0l-.06,0a.21.21,0,0,1,.12-.08A.71.71,0,0,1,26.83,29.14Z" transform="translate(-14.17 -14.27)"/><path class="cls-1" d="M21.48,29.22a.08.08,0,0,0,0,.09.09.09,0,0,0-.06.08c0,.1.12.16.06.23a.29.29,0,0,1-.22-.21.27.27,0,0,1,.17-.24S21.46,29.19,21.48,29.22Z" transform="translate(-14.17 -14.27)"/><path class="cls-1" d="M26.2,29.09c0,.19-.16.34-.17.55A1,1,0,0,0,26,30c-.06,0-.1,0-.12-.08A.66.66,0,0,1,26,29.2l.12-.11Z" transform="translate(-14.17 -14.27)"/><rect class="cls-1" x="27.26" y="29.18" width="0.08" height="0.01" transform="translate(-24.45 28.5) rotate(-66.8)"/><path class="cls-1" d="M25.15,29.35s0,0,0,0h0a1.12,1.12,0,0,0-.28.54s0,0,0,0h0s0,0,0-.06a.75.75,0,0,0-.3-.14s-.1,0-.11-.09.08,0,.12,0a.65.65,0,0,1,.23.09c.14-.15.19-.34.4-.45C25.12,29.29,25.13,29.33,25.15,29.35Z" transform="translate(-14.17 -14.27)"/><path class="cls-1" d="M22.14,29.4a.85.85,0,0,1,.42.77c.1,0,.22,0,.31.08s.09.08.09.14a.61.61,0,0,0-.46,0,.21.21,0,0,1-.2-.1c0-.12.08-.19.12-.28,0-.25-.2-.41-.36-.59S22.11,29.38,22.14,29.4Z" transform="translate(-14.17 -14.27)"/><path class="cls-1" d="M27.14,29.58a1.32,1.32,0,0,0-.15.59s0,0-.06,0,0-.32,0-.46a.23.23,0,0,0-.16.17h-.05c-.05,0,0-.09,0-.13s.22-.19.35-.31S27.14,29.55,27.14,29.58Z" transform="translate(-14.17 -14.27)"/><path class="cls-1" d="M29.45,29.57a1.48,1.48,0,0,0-.26.59,1,1,0,0,0,.23.69c.06.09.19.09.23.2a.45.45,0,0,1-.26-.09,1,1,0,0,1-.33-1c.07-.18.15-.4.35-.48Z" transform="translate(-14.17 -14.27)"/><path class="cls-1" d="M21.54,29.73c0,.07-.07.07-.08.13a.46.46,0,0,0-.06.26s-.09,0-.12-.07a.32.32,0,0,1,0-.27.23.23,0,0,1,.15-.1S21.53,29.69,21.54,29.73Z" transform="translate(-14.17 -14.27)"/><path class="cls-1" d="M25.88,30.07s0,.05,0,.07c-.29.05-.52-.27-.81-.09,0-.05,0,0,0,0s.06-.08.1-.13c.25-.11.47.1.69.17Z" transform="translate(-14.17 -14.27)"/><path class="cls-1" d="M25.11,30.16s0,0,0,0l0,0c.59,0,1.12,0,1.68,0,0,0,0,.11,0,.15s-.19,0-.28,0l-1.51,0,0-.07a3.67,3.67,0,0,0-.72-.27s0,0,0-.05a.74.74,0,0,1,.56.07A1.57,1.57,0,0,1,25.11,30.16Z" transform="translate(-14.17 -14.27)"/><path class="cls-1" d="M21.24,30.06c-.12.3-.38.7-.76.7-.1.07-.09.21-.2.29.06.1.2.14.24.25a.57.57,0,0,1,0,.14.07.07,0,0,1-.09,0c0-.1-.08-.16-.14-.21s-.11-.08-.15-.14.21-.3.2-.5c.08,0,.16,0,.24,0a1.16,1.16,0,0,0,.54-.49h0A.07.07,0,0,1,21.24,30.06Z" transform="translate(-14.17 -14.27)"/><path class="cls-1" d="M23.44,30.24c0,.06,0,.14,0,.2s-.09.06-.16,0,0-.13,0-.19.06-.15.14-.12Z" transform="translate(-14.17 -14.27)"/><path class="cls-1" d="M21.46,30.3c0,.09-.15,0-.18.15l0,.23c-.05,0-.07,0-.09-.07a.31.31,0,0,1,0-.25.24.24,0,0,1,.15-.13A.2.2,0,0,1,21.46,30.3Z" transform="translate(-14.17 -14.27)"/><path class="cls-1" d="M25.77,30.54s.05.05,0,.08c-.27.24-.57-.1-.88,0,0,0,0,0,0-.05.23-.2.49,0,.76,0Z" transform="translate(-14.17 -14.27)"/><path class="cls-1" d="M23.51,31.12a.32.32,0,0,1,.09.23.18.18,0,0,1-.11.17c-.07,0-.17.07-.23,0s.15-.06.17-.16a.14.14,0,0,0-.09-.13.35.35,0,0,0-.31.21c-.07.08.07.21,0,.24a.41.41,0,0,1,0-.46c.07-.1.17-.1.25-.15A.39.39,0,0,1,23.51,31.12Z" transform="translate(-14.17 -14.27)"/><path class="cls-1" d="M20.35,31.36a.13.13,0,0,1-.08.14c.11,0,.23,0,.27.16a.47.47,0,0,1,0,.21.16.16,0,0,1-.17,0s-.07,0-.07,0,0-.08.07-.11-.08,0-.12,0a.19.19,0,0,0-.1.16c.05.16.22.17.34.23a1.64,1.64,0,0,0,.38,0,.63.63,0,0,1,.57-.36,2.2,2.2,0,0,1,1.3.57,1.4,1.4,0,0,0,1.23.34c.71-.08,1.23-.62,2-.46.56.06,1,.46,1.55.52a1.51,1.51,0,0,0,1.16-.11A3.77,3.77,0,0,1,30.39,32a.71.71,0,0,1,.57.2s0,.12-.06.11c-.37-.24-.85-.07-1.25,0,0,0,.06,0,.06.11a1.08,1.08,0,0,0-.18.11c0,.07,0,.1.06.15s0,0,.05,0a.06.06,0,0,1-.06.06c-.09,0-.16-.06-.19-.13a.2.2,0,0,1,.06-.23l0,0a.8.8,0,0,0-.38.14l-.08,0a2.2,2.2,0,0,1-2.2.24.51.51,0,0,1-.54.11c-.11-.06-.23-.17-.22-.3s0,0,.05,0a.5.5,0,0,0,.49.23s.08,0,.11-.09c-.33-.19-.69-.47-1.11-.33a4,4,0,0,0-.74.3c.06.12.2.12.3.15a.45.45,0,0,0,.32-.2c.07,0,.06.06.05.09a.49.49,0,0,1-.3.25.55.55,0,0,1-.52-.24,2.51,2.51,0,0,1-1.81-.09c-.43-.33-.86-.77-1.45-.7a1,1,0,0,1-.92.3.78.78,0,0,1-.63-.38.33.33,0,0,1,.17-.35l.2-.05c-.11-.05,0-.24-.15-.3s.06,0,.08,0S20.34,31.28,20.35,31.36Z" transform="translate(-14.17 -14.27)"/><path class="cls-1" d="M31.54,31.45a.62.62,0,0,1,.14.52.68.68,0,0,1-.45.34s-.08,0-.09,0,.1,0,.13-.08a.34.34,0,0,0,.18-.21.46.46,0,0,0-.23-.42c-.09,0-.24-.08-.32,0s0,0-.07,0,.07-.1.11-.13A.66.66,0,0,1,31.54,31.45Z" transform="translate(-14.17 -14.27)"/><path class="cls-1" d="M30.88,31.69c.08.06.14.15.25.15s.11-.1.17-.12a.2.2,0,0,1-.1.23A.42.42,0,0,1,31,32a.4.4,0,0,1-.16-.39C30.86,31.57,30.84,31.66,30.88,31.69Z" transform="translate(-14.17 -14.27)"/><path class="cls-1" d="M22.27,32.27a.14.14,0,0,1,.11.11v.09l-.27.32a.06.06,0,0,1-.06,0c0-.09.1-.16.14-.25-.1-.28-.52,0-.62-.35,0,0,0-.06,0-.07A1.45,1.45,0,0,0,22.27,32.27Z" transform="translate(-14.17 -14.27)"/><path class="cls-1" d="M21.54,32.43a.74.74,0,0,0,.38.2.22.22,0,0,1,0,.16c-.11.08-.29.1-.36.26-.06,0,0-.07-.06-.09s0-.1,0-.11l.14-.17c-.08-.08-.19-.1-.27-.18a.24.24,0,0,0-.16.12v.12a.47.47,0,0,1-.32-.2s0-.08,0-.11.13.13.24.14a.31.31,0,0,1,.18-.23C21.46,32.32,21.5,32.38,21.54,32.43Z" transform="translate(-14.17 -14.27)"/><path class="cls-1" d="M26,32.53a.21.21,0,0,1-.12.22c-.07,0-.13.06-.2,0a.41.41,0,0,1-.17-.26c.06,0,.1,0,.14.06s.25,0,.31-.08S26,32.5,26,32.53Z" transform="translate(-14.17 -14.27)"/><path class="cls-1" d="M30.51,32.56a.36.36,0,0,1-.11.32h0l.41-.28a.06.06,0,0,1,0,.07c-.18.14-.35.33-.6.32s0-.19,0-.3-.09,0-.13,0a.67.67,0,0,0-.25.19c.07.05.17,0,.22.08h0s0,.09,0,.14a.54.54,0,0,1-.54.22c-.07,0-.07-.12-.12-.17s-.37-.18-.36-.38c.05,0,.09.06.14.08s.24.18.39.19a.1.1,0,0,1,0,.09s0,0-.05,0,0,0,.05,0A.43.43,0,0,0,30,33c-.08,0-.21,0-.24-.13a.87.87,0,0,1,.57-.45C30.42,32.43,30.46,32.51,30.51,32.56Z" transform="translate(-14.17 -14.27)"/><path class="cls-1" d="M25.7,33c0,.14-.09.2-.18.28a1,1,0,0,1-.34,0s0,0,0-.07.05,0,.08,0a.39.39,0,0,0,.36-.26C25.64,32.82,25.69,32.91,25.7,33Z" transform="translate(-14.17 -14.27)"/><path class="cls-1" d="M26.15,33c.08.12.23.15.33.22s0,0,.05,0-.06,0-.09.07a.41.41,0,0,1-.33-.08.28.28,0,0,1,0-.29C26.12,32.89,26.13,33,26.15,33Z" transform="translate(-14.17 -14.27)"/><path class="cls-1" d="M22.26,33a.82.82,0,0,0,.11.31c0,.07-.07,0-.09.09-.26,0-.4-.32-.67-.31l0,0c.05-.07.12,0,.19,0a2,2,0,0,1,.38.21.28.28,0,0,0-.1-.22C22.09,33,22.2,33,22.26,33Z" transform="translate(-14.17 -14.27)"/><path class="cls-1" d="M25.92,33.44a.29.29,0,0,1-.19.17c-.08,0,0-.16-.09-.21s.07-.19.12-.29,0,0,.08,0A.47.47,0,0,1,25.92,33.44Z" transform="translate(-14.17 -14.27)"/><path class="cls-1" d="M28.77,26.47a1,1,0,0,0,.09-.34c0-.1,0-.2,0-.29h0c-.08.17-.05.39-.15.55a1.22,1.22,0,0,0-.67.8c-.08.13.12.31-.06.37s-.12.11-.18.12v-.64s0-.08,0-.11c0-.36,0-.71,0-1.07l-.07-.09c-.4,0-.86,0-1.18,0h-.16c-.06,0-.13-.05-.15,0l-2.51,0-.12.16a3.88,3.88,0,0,1,0,.58c0,.05,0,.1,0,.13s-.06,0-.07,0a1.43,1.43,0,0,0-.64-.6,0,0,0,0,0,0,.05,1.37,1.37,0,0,1,.29.39c0,.12.1.23,0,.35L23,26.71c-.06,0-.12-.15-.18-.08.09.26.5.39.43.72l0,0c.17,0,.11-.2.22-.27s0,.09.06.1,0,.12,0,.19.08,0,.13,0,.07-.05.1-.1.13,0,.17-.07-.28-.09-.26-.26,0,0,.06,0,.07-.08.12-.06.12-.36.18-.55a.26.26,0,0,1,.24-.16c.32.1.09.53.35.68h0a1.14,1.14,0,0,0-.58,0s-.07,0-.06.07a.12.12,0,0,1,.08,0,1.22,1.22,0,0,1,.47,0c-.1.07-.26,0-.39.05a1,1,0,0,0-.34-.05c0,.08.08.09.12.13a.86.86,0,0,0,.77-.08.28.28,0,0,0-.06-.15h.09c0-.06,0-.07-.09-.12,0-.21,0-.48-.2-.62a.49.49,0,0,0-.55.1c-.12.15,0,.38-.11.54,0-.05,0-.14,0-.19s0-.24,0-.35.17-.1.15-.21.08-.1.16-.09v0s-.08.05,0,.09.23,0,.34,0c.31.14.18.49.32.73,0,.06.17.11.11.21s-.25.24-.42.26-.22,0-.28,0l0,0-.14,0s0,0,0,.07c.26,0,.59,0,.86,0v-.15a3.76,3.76,0,0,0,0-.47c.29.46.51,1,.77,1.44-.44,0-.92,0-1.38,0,0,0,0-.06,0-.1s-.18-.21-.3-.27.09.1.1.17,0,.15,0,.19a.14.14,0,0,0,.12.12l-.08.12c-.06.17-.34.1-.3.31s.06.16.16.17a1.26,1.26,0,0,1,.74-.34,1.22,1.22,0,0,0-.28.14c-.23.22-.54.34-.56.69,0,0,.06,0,.08.07a2.65,2.65,0,0,1,.5-.45c.32-.11.76-.4,1.06-.07a.81.81,0,0,1,.31-.06,1.38,1.38,0,0,1,.12-.34.47.47,0,0,1,.33-.17c-.2.28.22.08.25.28a.08.08,0,0,0,.11,0c.15,0,.21-.13.32-.17s.22-.07.28-.16c-.15-.1,0-.22,0-.32,0-.59,0-1.18,0-1.8l0,0s-.09,0-.12,0a2.32,2.32,0,0,0-.18.6l-.17.89s.05,0,.07,0,.09-.14.15-.16c0,.22-.07.43-.11.64-.39,0-.76,0-1.11,0,.14-.26.24-.53.38-.78s.28-.56.43-.83.22-.44.33-.66a4.42,4.42,0,0,1,.52,0c0,.33,0,.7,0,1a8.63,8.63,0,0,1,0,.87s0,.07.07.06v0s0-.09.08-.06a.91.91,0,0,1,.64-.35c0-.05,0-.11,0-.17a.66.66,0,0,1,.3-.41c0-.06.17,0,.17-.11s-.28,0-.38,0C28.47,26.66,28.64,26.58,28.77,26.47Zm-3.86-.18v0c-.08-.06-.06-.17-.13-.23s-.05-.09-.06-.14H25C25,26.06,25,26.23,24.91,26.29Zm.93,1.76c-.29-.53-.61-1.07-.87-1.63.13,0,.3,0,.43,0s-.06-.09-.1-.15a1,1,0,0,1,0-.29c.12,0,.24,0,.39,0,0,.12,0,.29-.1.36s-.05.05,0,.08l0,0H26s0-.05,0-.08l-.11-.08a.73.73,0,0,0,0-.29h.4c-.09.1,0,.32-.16.36,0,0,0,0,0,.06l0,0c.15,0,.33,0,.49,0,0,0,0-.05,0-.08-.19-.06-.06-.29-.16-.4.11,0,.25,0,.4,0C26.54,26.67,26.2,27.39,25.84,28.05Z" transform="translate(-14.17 -14.27)"/><path class="cls-1" d="M25.56,26.48c.07.12,0,.29.15.34v.07a1,1,0,0,1-.45,0l0-.05c0-.06.11,0,.13-.1s-.05-.23.06-.3A.11.11,0,0,1,25.56,26.48Z" transform="translate(-14.17 -14.27)"/><path class="cls-1" d="M26.24,26.61c0,.11,0,.18.11.2s0,.07,0,.09-.22,0-.34,0-.13.06-.16,0,.06-.1.11-.14,0-.24.07-.3S26.18,26.55,26.24,26.61Z" transform="translate(-14.17 -14.27)"/><path class="cls-1" d="M25.93,27.05c.06.08-.05.3.13.28a.08.08,0,0,1,0,.09,1.55,1.55,0,0,1-.48,0s-.07,0,0-.08.15,0,.14-.09,0-.15,0-.23h.06s0,0,0,0A.18.18,0,0,1,25.93,27.05Z" transform="translate(-14.17 -14.27)"/><path class="cls-1" d="M26,27.74c0,.06-.08.06-.08.12s0,0-.06,0-.13-.07-.09-.15S25.9,27.65,26,27.74Z" transform="translate(-14.17 -14.27)"/><path class="cls-1" d="M25.73,21.49a7.2,7.2,0,1,0,7.19,7.2A7.2,7.2,0,0,0,25.73,21.49Zm0,14.11a6.92,6.92,0,1,1,6.91-6.91A6.91,6.91,0,0,1,25.73,35.6Z" transform="translate(-14.17 -14.27)"/><path class="cls-1" d="M16.17,27.79a.6.6,0,0,0-.6.6h1.19A.59.59,0,0,0,16.17,27.79Z" transform="translate(-14.17 -14.27)"/><path class="cls-1" d="M35,27.79a.59.59,0,0,0-.59.6H35.6A.6.6,0,0,0,35,27.79Z" transform="translate(-14.17 -14.27)"/><path class="cls-1" d="M50.73,20.19a3.12,3.12,0,0,1,2.39.7,1.7,1.7,0,0,1,.48,1.24,1.75,1.75,0,0,1-1,1.6A1.83,1.83,0,0,1,54,25.53,2,2,0,0,1,53.45,27a3.28,3.28,0,0,1-2.54.8H49.35c-.41,0-.47,0-.47-.16V20.35c0-.14.06-.16.47-.16ZM50.4,23.3h.38a1.43,1.43,0,0,0,1-.29.92.92,0,0,0,.29-.7.91.91,0,0,0-.22-.63,1.43,1.43,0,0,0-1.06-.28H50.4Zm0,3.27h.53a1.77,1.77,0,0,0,1.2-.3,1.15,1.15,0,0,0,0-1.49,1.66,1.66,0,0,0-1.26-.33H50.4Z" transform="translate(-14.17 -14.27)"/><path class="cls-1" d="M56.05,25.49a1.28,1.28,0,0,0,1.39,1.16,3.77,3.77,0,0,0,1.48-.34c.12,0,.17,0,.29.3l.09.27c.13.35.12.42,0,.49a4.33,4.33,0,0,1-2,.51,2.55,2.55,0,0,1-2.71-2.82c0-1.73,1-2.95,2.59-2.95s2.44,1.19,2.44,2.83c0,.41,0,.55-.11.55Zm2.07-1c-.06-.65-.39-1.13-1-1.13s-1,.43-1.09,1.13Z" transform="translate(-14.17 -14.27)"/><path class="cls-1" d="M61,19.77c.6,0,.67,0,.69.13a27.5,27.5,0,0,1,.1,3.07v3.35c0,.24.08.36.35.36h.12c.1,0,.11.07.11.46v.09c0,.38,0,.43-.1.47a1.92,1.92,0,0,1-.7.12,1.23,1.23,0,0,1-.89-.31,1.48,1.48,0,0,1-.34-1.11V22.75c0-1-.05-2.47-.08-2.85,0-.11,0-.13.69-.13Z" transform="translate(-14.17 -14.27)"/><path class="cls-1" d="M63.24,22.21V22a2.43,2.43,0,0,1,.59-1.75,2,2,0,0,1,1.51-.55,3.72,3.72,0,0,1,1.16.2c.1,0,.11.12,0,.49l0,.18c-.08.36-.14.43-.22.41a2.71,2.71,0,0,0-.68-.09.81.81,0,0,0-.7.28,1.47,1.47,0,0,0-.2.87v.21h1.21c.09,0,.14,0,.14.53v.07c0,.51,0,.53-.14.53H64.68v4.27c0,.12-.06.16-.69.16h-.05c-.68,0-.7,0-.7-.16v-5.4Z" transform="translate(-14.17 -14.27)"/><path class="cls-1" d="M69.9,22.35c0-.1.06-.14.62-.14h.07c.53,0,.61,0,.61.15,0,.35,0,1.41,0,2.27v.65c0,.82,0,1.73.07,2.3,0,.15,0,.19-.6.19H70.6c-.52,0-.6,0-.64-.13a1.49,1.49,0,0,1-.08-.36,2,2,0,0,1-1.44.6c-1.38,0-2.23-1.06-2.23-2.78,0-1.92,1.06-3,2.32-3a1.65,1.65,0,0,1,1.33.62Zm-.17,1.51a1.11,1.11,0,0,0-.91-.5c-.77,0-1.13.61-1.13,1.7,0,.93.25,1.61,1.11,1.61a1,1,0,0,0,.79-.32,1,1,0,0,0,.14-.59Z" transform="translate(-14.17 -14.27)"/><path class="cls-1" d="M72.25,26.58c.18-.31.27-.41.39-.32a2.59,2.59,0,0,0,1.35.45c.56,0,.88-.21.88-.5,0-.82-2.69-.31-2.69-2.32,0-1.11.95-1.78,2.18-1.78a2.92,2.92,0,0,1,1.74.52c.1.08.08.16-.13.52l-.1.15c-.19.32-.26.38-.37.3a2,2,0,0,0-1.08-.34,1.11,1.11,0,0,0-.68.18.39.39,0,0,0-.15.31c0,.79,2.69.38,2.69,2.27a1.82,1.82,0,0,1-.53,1.28,2.4,2.4,0,0,1-1.74.58,3.14,3.14,0,0,1-2-.63c-.08-.08-.07-.17.1-.48Z" transform="translate(-14.17 -14.27)"/><path class="cls-1" d="M77.18,22.21V20.85c0-.11,0-.16.71-.16h0c.62,0,.69,0,.69.16v1.36h1.25c.09,0,.14,0,.14.53v.07c0,.51,0,.53-.14.53H78.63v2.6a.72.72,0,0,0,.18.59.68.68,0,0,0,.46.15,1.92,1.92,0,0,0,.55-.11c.1,0,.15,0,.27.42l0,.11c.12.39.11.45,0,.51a2.86,2.86,0,0,1-1.21.27,1.72,1.72,0,0,1-1.27-.43A1.9,1.9,0,0,1,77.18,26V22.21Z" transform="translate(-14.17 -14.27)"/><path class="cls-1" d="M53.61,30.57c-.09.17-.19.28-.26.25a2.85,2.85,0,0,0-1.44-.4c-1.27,0-2.26.95-2.26,3.08,0,1.47.49,3,2.21,3a3.12,3.12,0,0,0,1.44-.35c.06,0,.17,0,.25.24l.07.13c.07.16.09.32,0,.36a3.91,3.91,0,0,1-2,.5c-2.11,0-3.06-1.57-3.06-3.8s.81-4,3.2-4a3.38,3.38,0,0,1,1.89.53c.06,0,0,.2,0,.36Z" transform="translate(-14.17 -14.27)"/><path class="cls-1" d="M55.14,29.32a.66.66,0,0,1,.67.66.67.67,0,1,1-1.33,0A.66.66,0,0,1,55.14,29.32Zm0,2.37c.42,0,.43,0,.43.13v5.3c0,.08,0,.13-.43.13h-.07c-.42,0-.45,0-.45-.13v-5.3c0-.09,0-.13.45-.13Z" transform="translate(-14.17 -14.27)"/><path class="cls-1" d="M56.83,31.69V30.26c0-.09,0-.13.46-.13h.06c.42,0,.43.05.43.13v1.43h1.33c.07,0,.09,0,.09.33v.08c0,.28,0,.34-.09.34H57.78v3.1a1.24,1.24,0,0,0,.17.82.7.7,0,0,0,.54.19,2.71,2.71,0,0,0,.71-.14c.11,0,.14,0,.19.21l0,.14c.06.22.06.28,0,.33a2.21,2.21,0,0,1-1.1.27A1.48,1.48,0,0,1,57.23,37a1.77,1.77,0,0,1-.4-1.39V31.69Z" transform="translate(-14.17 -14.27)"/><path class="cls-1" d="M61.74,34.43a17.29,17.29,0,0,1,.58,1.8c.12-.49.33-1.11.54-1.73l.93-2.69c0-.1.15-.12.48-.12s.52,0,.48.15l-2,5.54a4.86,4.86,0,0,1-.89,1.68,2,2,0,0,1-1.57.64,2.07,2.07,0,0,1-.84-.18c-.12-.07-.1-.15,0-.34l0-.13c.08-.25.11-.29.23-.26a2.12,2.12,0,0,0,.57.09c.69,0,1.1-.38,1.54-1.57l-2.09-5.47c0-.13.07-.15.49-.15s.51,0,.54.12Z" transform="translate(-14.17 -14.27)"/><path class="cls-1" d="M72.47,30.57c-.08.17-.19.28-.25.25a2.88,2.88,0,0,0-1.44-.4c-1.28,0-2.27.95-2.27,3.08,0,1.47.5,3,2.21,3a3.16,3.16,0,0,0,1.45-.35c.06,0,.17,0,.25.24l.06.13c.08.16.1.32,0,.36a3.88,3.88,0,0,1-2,.5c-2.1,0-3-1.57-3-3.8s.81-4,3.19-4a3.39,3.39,0,0,1,1.9.53c.06,0,0,.2,0,.36Z" transform="translate(-14.17 -14.27)"/><path class="cls-1" d="M77.27,32.11a2.88,2.88,0,0,1,.84,2.23c0,2-1,3-2.63,3a2.29,2.29,0,0,1-1.58-.53,2.91,2.91,0,0,1-.83-2.23c0-2,1.05-3,2.63-3A2.26,2.26,0,0,1,77.27,32.11Zm-3.21,2.41c0,.95.32,2,1.47,2,.84,0,1.59-.59,1.59-2.09,0-1-.32-2-1.47-2C74.81,32.43,74.06,33,74.06,34.52Z" transform="translate(-14.17 -14.27)"/><path class="cls-1" d="M79.44,31.69c.4,0,.45,0,.45.13v2.76c0,.83,0,1.26.26,1.54a1.14,1.14,0,0,0,.94.36,1.77,1.77,0,0,0,1.15-.38c.22-.21.33-.52.33-1.68v-2.6c0-.08.07-.13.42-.13h.1c.36,0,.43,0,.43.13v3.59c0,.71,0,1.45,0,1.71,0,.09,0,.13-.43.13h0c-.37,0-.43,0-.43-.13l0-.45h0a2.24,2.24,0,0,1-1.74.69,1.88,1.88,0,0,1-1.41-.56A2.49,2.49,0,0,1,78.94,35V31.82c0-.08,0-.13.42-.13Z" transform="translate(-14.17 -14.27)"/><path class="cls-1" d="M85.24,31.69c.38,0,.43,0,.43.13v.47h0a2.36,2.36,0,0,1,1.72-.71,2,2,0,0,1,1.44.56,2.4,2.4,0,0,1,.54,1.79v3.19c0,.08,0,.13-.44.13h-.06c-.42,0-.45,0-.45-.13V34.38c0-.86,0-1.26-.29-1.55a1.23,1.23,0,0,0-1-.35,1.73,1.73,0,0,0-1.11.38,1,1,0,0,0-.29.75c0,.29,0,.83,0,1.44v2.07c0,.08,0,.13-.43.13h-.06c-.43,0-.46,0-.46-.13V33.53c0-.71,0-1.45,0-1.71,0-.09,0-.13.43-.13Z" transform="translate(-14.17 -14.27)"/><path class="cls-1" d="M94.48,36.51c.11.26.08.33,0,.37a3.57,3.57,0,0,1-1.79.48c-1.61,0-2.41-1.24-2.41-2.81,0-1.92,1.13-3,2.59-3a3,3,0,0,1,1.7.55c.08.07.08.14-.07.49s-.26.32-.33.27a2.31,2.31,0,0,0-1.24-.44c-1,0-1.66.74-1.66,2,0,1,.41,2,1.55,2a3.18,3.18,0,0,0,1.34-.32c.08-.05.19,0,.27.21Z" transform="translate(-14.17 -14.27)"/><path class="cls-1" d="M95.94,29.32a.65.65,0,0,1,.66.66.66.66,0,0,1-.66.67.67.67,0,0,1-.67-.67A.66.66,0,0,1,95.94,29.32Zm0,2.37c.42,0,.43,0,.43.13v5.3c0,.08,0,.13-.43.13h-.06c-.43,0-.46,0-.46-.13v-5.3c0-.09,0-.13.46-.13Z" transform="translate(-14.17 -14.27)"/><path class="cls-1" d="M98.15,29.25c.34,0,.41,0,.43.13,0,.3.06,1.56.06,3.12V36c0,.39.06.52.4.52h.11s.06,0,.06.29v0c0,.27,0,.32-.06.34a1.69,1.69,0,0,1-.5.08.86.86,0,0,1-.78-.36,2.17,2.17,0,0,1-.17-1.1V32.27c0-1.11,0-2.48-.07-2.89,0-.1.1-.13.46-.13Z" transform="translate(-14.17 -14.27)"/><rect class="cls-1" x="28.33" width="0.73" height="28.14"/></svg>