<svg id="Layer_1" data-name="Layer 1" xmlns="http://www.w3.org/2000/svg" viewBox="0 0 316.15 158.43"><defs><style>.cls-1{fill:#fff;}.cls-2{fill:#231f20;}.cls-3{fill:none;}.cls-4{fill:#005f72;}</style></defs><rect class="cls-1" width="316.15" height="158.43"/><path class="cls-2" d="M16.51,91.16h5.76v16.63H32.32v5.07H16.51Z" transform="translate(9.78 18.73)"/><path class="cls-2" d="M44,113.38a11.51,11.51,0,0,1-4.51-.86,11,11,0,0,1-3.58-2.37,10.81,10.81,0,0,1-2.36-3.62,12.85,12.85,0,0,1,0-9.14,10.59,10.59,0,0,1,5.94-6,12.42,12.42,0,0,1,9,0,10.49,10.49,0,0,1,3.58,2.36,10.79,10.79,0,0,1,2.35,3.61,12.85,12.85,0,0,1,0,9.14,10.94,10.94,0,0,1-2.35,3.62,10.81,10.81,0,0,1-3.58,2.37A11.59,11.59,0,0,1,44,113.38Zm0-5.4a5.25,5.25,0,0,0,2.26-.47,5,5,0,0,0,1.68-1.29,5.73,5.73,0,0,0,1-1.92,7.45,7.45,0,0,0,.36-2.34A7.54,7.54,0,0,0,49,99.62a5.73,5.73,0,0,0-1-1.92,5.1,5.1,0,0,0-1.68-1.29,5.67,5.67,0,0,0-4.52,0A5.1,5.1,0,0,0,40,97.7a5.73,5.73,0,0,0-1,1.92,7.54,7.54,0,0,0-.36,2.34A7.45,7.45,0,0,0,39,104.3a5.73,5.73,0,0,0,1,1.92,5,5,0,0,0,1.68,1.29A5.25,5.25,0,0,0,44,108Z" transform="translate(9.78 18.73)"/><path class="cls-2" d="M62.31,96.2H55.64v-5h19.1v5H68.13v16.66H62.31Z" transform="translate(9.78 18.73)"/><path class="cls-2" d="M82.18,96.2H75.51v-5h19.1v5H88v16.66H82.18Z" transform="translate(9.78 18.73)"/><path class="cls-2" d="M96,91.16h15.62v5h-9.86v3.35h8.1v4.68h-8.1v3.71h10.54v5H96Z" transform="translate(9.78 18.73)"/><path class="cls-2" d="M114.69,91.16h9a10.48,10.48,0,0,1,3.18.45A6.87,6.87,0,0,1,129.27,93a6,6,0,0,1,1.56,2.23,8,8,0,0,1,.56,3.09,7.13,7.13,0,0,1-.95,3.73,7.27,7.27,0,0,1-2.5,2.52l4.65,8.33h-6.18l-3.68-7.38h-2.41v7.38h-5.63Zm8.43,9.79a2.54,2.54,0,0,0,1.86-.7,2.51,2.51,0,0,0,.71-1.87,2.74,2.74,0,0,0-.68-1.95,2.53,2.53,0,0,0-1.92-.72h-2.77V101Z" transform="translate(9.78 18.73)"/><path class="cls-2" d="M139,104.21l-7.71-13h6.61l4.23,7.74,4-7.74h6.41l-7.75,13v8.69H139Z" transform="translate(9.78 18.73)"/><path class="cls-2" d="M158.35,91.16h15.13v5h-9.37v4.2h7.25v4.75h-7.25v7.71h-5.76Z" transform="translate(9.78 18.73)"/><path class="cls-2" d="M174.9,91.16h5.76v12.72a4.88,4.88,0,0,0,.83,2.93,3.17,3.17,0,0,0,2.75,1.14,3.1,3.1,0,0,0,2.73-1.16,4.88,4.88,0,0,0,.82-2.91V91.16h5.82V104.4a9.8,9.8,0,0,1-.68,3.76A7.93,7.93,0,0,1,191,111a8.45,8.45,0,0,1-3,1.79,11,11,0,0,1-3.76.62,11.17,11.17,0,0,1-3.77-.62,8.67,8.67,0,0,1-3-1.78,7.89,7.89,0,0,1-1.94-2.83,10,10,0,0,1-.68-3.79Z" transform="translate(9.78 18.73)"/><path class="cls-2" d="M196.72,91.16H202l8.33,12.1V91.16H216v21.7h-4.92l-8.65-12.46v12.46h-5.7Z" transform="translate(9.78 18.73)"/><path class="cls-2" d="M219.22,91.16h8.34a15.56,15.56,0,0,1,4.63.65,10.22,10.22,0,0,1,3.7,2,9.08,9.08,0,0,1,2.44,3.42,12.7,12.7,0,0,1,.88,4.91,11.44,11.44,0,0,1-.9,4.71,9.44,9.44,0,0,1-2.46,3.35,10.25,10.25,0,0,1-3.71,2,15.63,15.63,0,0,1-4.62.66h-8.3Zm8.11,16.63a5.44,5.44,0,0,0,5.92-5.8,7.35,7.35,0,0,0-.36-2.36,4.86,4.86,0,0,0-1.09-1.82A5,5,0,0,0,230,96.62a7.36,7.36,0,0,0-2.63-.42H225v11.59Z" transform="translate(9.78 18.73)"/><path class="cls-2" d="M241.42,91.16H257v5h-9.86v3.35h8.11v4.68h-8.11v3.71h10.55v5H241.42Z" transform="translate(9.78 18.73)"/><path class="cls-2" d="M260.11,91.16h8.33a15.63,15.63,0,0,1,4.64.65,10.1,10.1,0,0,1,3.69,2,9.08,9.08,0,0,1,2.44,3.42,12.52,12.52,0,0,1,.88,4.91,11.44,11.44,0,0,1-.9,4.71,9.42,9.42,0,0,1-2.45,3.35,10.33,10.33,0,0,1-3.71,2,15.68,15.68,0,0,1-4.62.66h-8.3Zm8.1,16.63a5.44,5.44,0,0,0,5.92-5.8,7.64,7.64,0,0,0-.35-2.36,5,5,0,0,0-1.09-1.82,5.14,5.14,0,0,0-1.84-1.19,7.46,7.46,0,0,0-2.64-.42h-2.34v11.59Z" transform="translate(9.78 18.73)"/><path class="cls-2" d="M72.62,57.8h9.82v2H74.87V64.6h5.77v2H74.87v6.85H72.62Z" transform="translate(9.78 18.73)"/><path class="cls-2" d="M84.13,57.8h2.25V67a9.57,9.57,0,0,0,.19,1.93,4,4,0,0,0,.65,1.52,3,3,0,0,0,1.22,1,5.59,5.59,0,0,0,3.84,0,3,3,0,0,0,1.22-1,4,4,0,0,0,.65-1.52A9.57,9.57,0,0,0,94.34,67V57.8h2.25v9.69a8.13,8.13,0,0,1-.38,2.5,5.54,5.54,0,0,1-1.14,2,5.24,5.24,0,0,1-1.93,1.35,8.07,8.07,0,0,1-5.54,0A5.36,5.36,0,0,1,85.66,72a5.42,5.42,0,0,1-1.15-2,8.13,8.13,0,0,1-.38-2.5Z" transform="translate(9.78 18.73)"/><path class="cls-2" d="M99,57.8h2.28L109.77,70V57.8H112V73.45h-2.25L101.17,61.2V73.45H99Z" transform="translate(9.78 18.73)"/><path class="cls-2" d="M114.27,57.8h5.24a11.92,11.92,0,0,1,3.41.46,7,7,0,0,1,2.68,1.43,6.59,6.59,0,0,1,1.76,2.45,8.75,8.75,0,0,1,.64,3.52,8.43,8.43,0,0,1-.64,3.43,6.55,6.55,0,0,1-1.76,2.44A7.35,7.35,0,0,1,122.91,73a12.05,12.05,0,0,1-3.43.47h-5.21Zm5.16,13.63A6.68,6.68,0,0,0,124,70a5.46,5.46,0,0,0,1.63-4.29,5.82,5.82,0,0,0-1.57-4.37,6.54,6.54,0,0,0-4.7-1.51h-2.83V71.43Z" transform="translate(9.78 18.73)"/><path class="cls-3" d="M56.14,15.37a1.36,1.36,0,0,0,.46.32,1.58,1.58,0,0,0,1.16,0,1.42,1.42,0,0,0,.76-.79,1.47,1.47,0,0,0,.11-.59,1.44,1.44,0,0,0-.11-.59,1.5,1.5,0,0,0-.3-.48,1.52,1.52,0,0,0-.46-.32,1.4,1.4,0,0,0-.58-.11,1.43,1.43,0,0,0-.58.11,1.65,1.65,0,0,0-.46.32,1.72,1.72,0,0,0-.31.48,1.63,1.63,0,0,0-.1.59,1.66,1.66,0,0,0,.1.59A1.54,1.54,0,0,0,56.14,15.37Zm.39-2h.73a.67.67,0,0,1,.3.06.57.57,0,0,1,.21.13.66.66,0,0,1,.12.17.69.69,0,0,1,0,.2.63.63,0,0,1-.09.33.6.6,0,0,1-.27.22l.46.77h-.41l-.42-.72h-.3v.72h-.36Z" transform="translate(9.78 18.73)"/><path class="cls-3" d="M57.48,14.14a.32.32,0,0,0,0-.42.45.45,0,0,0-.26-.07h-.33v.57h.35A.29.29,0,0,0,57.48,14.14Z" transform="translate(9.78 18.73)"/><path class="cls-2" d="M61.46,37.57a4.39,4.39,0,0,0-2.63,1c.27-3.06-.87-5.33-3-6.12a5.51,5.51,0,0,0-3.94.18l-1.7-4.11c1.57-3.84,4.32-8.52,4.32-12.37,0-3-1.5-5.15-4.38-5.15-1.75,0-3.67,1.43-5.14,3.28-2-4.46-4.1-6.55-6.37-6.55-3.58,0-5.07,3.58-5.07,6.64,0,2.53.7,6.72,3.41,12.67a110.11,110.11,0,0,0-4.89,12.75A14.45,14.45,0,0,0,21.8,35.3,10.6,10.6,0,0,0,15.86,37a4.94,4.94,0,0,0-2.35,3.93c0,2.19,1.48,3.67,3.75,4.28,3.93,1,5.68,4.2,7.16,10.4,2.71,11.18,9.7,17.91,20.44,17.91A20.65,20.65,0,0,0,65.47,52.86,24.36,24.36,0,0,0,65,48.4a17.78,17.78,0,0,0,.78-2.62C66.78,41,65,37.57,61.46,37.57ZM55,34.94c1.82.85,2,4.64.13,9.18-1.48,4.37-3.62,7-5.61,7.06-1.57,0-2.88-1.11-2.88-4.08C46.61,41.5,51.2,33.2,55,34.94ZM36.13,14.42c0-1.84.78-4,2.53-4q1.83,0,4.45,5.76a47.21,47.21,0,0,0-4.62,7.61C36.91,19.66,36.13,16.6,36.13,14.42Zm8.73,56.44C35.69,70.86,29.4,64.48,27,55,25.3,48.4,23.2,44,17.87,42.64c-.61-.18-1.74-.61-1.74-1.75s2-3,5.67-3c4.35,0,8,2.67,10.4,6.22l1.86-.7c.28-3.58,2.1-8.47,5.3-15.3,4-8.65,8.1-14.55,10.81-14.47a2.38,2.38,0,0,1,1.89,2.53c0,3.58-3.16,9-5.92,14.79l-1.53,3.36,1.8.78c.6-1,1.82-3.39,2-3.79l1.35,3c-2.88,2.45-5.41,8.21-5.41,12.76,0,3.31,1.48,5.39,3.66,6.08a4.91,4.91,0,0,0,5.42-1.72,4.32,4.32,0,0,0,4.46,3.91c2.39,0,4-1.37,5.15-3.73A18.52,18.52,0,0,1,44.86,70.86Zm18.6-25.43c-.61,3.67-2.84,7.75-5.58,7.75S55.41,49.71,56,47.62c1-3.76,3.52-7.69,5.44-7.69C63.2,39.93,64,42.29,63.46,45.43Z" transform="translate(9.78 18.73)"/><path class="cls-1" d="M36.44,57.38l2.27-1.06c2.22,6.56,8.63,8.36,14.56,5.27l.91,2.25C46.41,68.26,39.17,65.44,36.44,57.38Z" transform="translate(9.78 18.73)"/><path class="cls-1" d="M58.79,51.29a1.83,1.83,0,1,1,1.82-1.82A1.83,1.83,0,0,1,58.79,51.29Z" transform="translate(9.78 18.73)"/><path class="cls-2" d="M38.71,56.32l-2.27,1.06c2.73,8.06,10,10.88,17.74,6.46l-.91-2.25C47.34,64.68,40.93,62.88,38.71,56.32Z" transform="translate(9.78 18.73)"/><path class="cls-2" d="M50,49a2,2,0,1,0-2-2A2,2,0,0,0,50,49Z" transform="translate(9.78 18.73)"/><path class="cls-2" d="M58.79,47.64a1.83,1.83,0,1,0,1.82,1.83A1.83,1.83,0,0,0,58.79,47.64Z" transform="translate(9.78 18.73)"/><path class="cls-2" d="M56.89,14.51h.3l.42.72H58l-.46-.77a.6.6,0,0,0,.27-.22.63.63,0,0,0,.09-.33.69.69,0,0,0,0-.2.66.66,0,0,0-.12-.17.57.57,0,0,0-.21-.13.67.67,0,0,0-.3-.06h-.73v1.88h.36Zm0-.86h.33a.45.45,0,0,1,.26.07.32.32,0,0,1,0,.42.29.29,0,0,1-.24.08h-.35Z" transform="translate(9.78 18.73)"/><path class="cls-2" d="M55.87,15.62a1.82,1.82,0,0,0,.58.4,2,2,0,0,0,1.46,0,1.82,1.82,0,0,0,.58-.4,1.69,1.69,0,0,0,.39-.59A1.8,1.8,0,0,0,59,14.3a1.72,1.72,0,0,0-.15-.72,1.6,1.6,0,0,0-.39-.59,1.82,1.82,0,0,0-.58-.4,1.77,1.77,0,0,0-.73-.15,1.8,1.8,0,0,0-.73.15,1.82,1.82,0,0,0-.58.4,1.76,1.76,0,0,0-.4.59,1.89,1.89,0,0,0-.14.72,2,2,0,0,0,.14.73A1.87,1.87,0,0,0,55.87,15.62Zm0-1.9a1.72,1.72,0,0,1,.31-.48,1.65,1.65,0,0,1,.46-.32,1.43,1.43,0,0,1,.58-.11,1.4,1.4,0,0,1,.58.11,1.52,1.52,0,0,1,.46.32,1.5,1.5,0,0,1,.3.48,1.44,1.44,0,0,1,.11.59,1.47,1.47,0,0,1-.11.59,1.42,1.42,0,0,1-.76.79,1.58,1.58,0,0,1-1.16,0,1.36,1.36,0,0,1-.46-.32,1.54,1.54,0,0,1-.31-.47,1.66,1.66,0,0,1-.1-.59A1.63,1.63,0,0,1,55.83,13.72Z" transform="translate(9.78 18.73)"/><polygon class="cls-4" points="82.39 56.33 86.73 56.33 86.73 62.31 92.76 62.31 92.76 56.33 97.1 56.33 97.1 72.68 92.76 72.68 92.76 66.28 86.73 66.28 86.73 72.68 82.39 72.68 82.39 56.33"/><polygon class="cls-4" points="99.91 56.33 111.68 56.33 111.68 60.08 104.25 60.08 104.25 62.6 110.35 62.6 110.35 66.14 104.25 66.14 104.25 68.93 112.19 68.93 112.19 72.68 99.91 72.68 99.91 56.33"/><path class="cls-4" d="M111,45a1.91,1.91,0,0,0,1.4-.52A1.88,1.88,0,0,0,113,43a2.05,2.05,0,0,0-.51-1.47A1.92,1.92,0,0,0,111,41h-2.09V45Zm-6.35-7.38h6.77a7.75,7.75,0,0,1,2.39.35,5.09,5.09,0,0,1,1.83,1,4.64,4.64,0,0,1,1.18,1.68,6.21,6.21,0,0,1,.41,2.33,5.27,5.27,0,0,1-2.6,4.71L118.16,54H113.5l-2.77-5.57h-1.82V54h-4.24Z" transform="translate(9.78 18.73)"/><rect class="cls-4" x="129.85" y="56.33" width="4.34" height="16.36"/><polygon class="cls-4" points="141.18 60.13 136.15 60.13 136.15 56.33 150.55 56.33 150.55 60.13 145.57 60.13 145.57 72.68 141.18 72.68 141.18 60.13"/><path class="cls-4" d="M148.81,47.4l-1.81-6-1.89,6Zm-4.14-9.81h5L155.43,54h-4.68l-1.05-3.38h-5.47L143.15,54h-4.49Z" transform="translate(9.78 18.73)"/><path class="cls-4" d="M164.36,44.61h6.72V52a9.15,9.15,0,0,1-3.37,1.8,13.57,13.57,0,0,1-3.82.55,10,10,0,0,1-3.56-.6A7.36,7.36,0,0,1,157.64,52,7.27,7.27,0,0,1,156,49.31a10.54,10.54,0,0,1-.58-3.58,9.19,9.19,0,0,1,.63-3.44,7.85,7.85,0,0,1,4.44-4.5,8.89,8.89,0,0,1,3.44-.64,10.7,10.7,0,0,1,3.82.68,6.68,6.68,0,0,1,3,2.24l-2.82,2.84a8,8,0,0,0-1.63-1.25,4.15,4.15,0,0,0-2-.49,4.54,4.54,0,0,0-1.86.37,4.15,4.15,0,0,0-1.36,1,4.41,4.41,0,0,0-.85,1.48,5.57,5.57,0,0,0-.29,1.8,5.23,5.23,0,0,0,.32,1.9,4.34,4.34,0,0,0,.88,1.45,3.87,3.87,0,0,0,1.37.93,4.8,4.8,0,0,0,1.82.33,6,6,0,0,0,1.54-.2,4.41,4.41,0,0,0,1.42-.68V48h-2.84Z" transform="translate(9.78 18.73)"/><polygon class="cls-4" points="183.53 56.33 183.53 72.68 195.81 72.68 195.81 68.93 187.87 68.93 187.87 66.14 193.98 66.14 193.98 62.6 187.87 62.6 187.87 60.08 195.3 60.08 195.3 56.33 183.53 56.33"/></svg>