<svg id="Layer_1" data-name="Layer 1" xmlns="http://www.w3.org/2000/svg" viewBox="0 0 250 22.82"><defs><style>.cls-1{fill:#868788;}.cls-2{fill:#fff;}</style></defs><title>nmniLogo</title><polygon class="cls-1" points="58.18 22.82 43.06 7.48 43.06 21.14 38.98 22.81 23.96 7.5 23.96 21.14 19.89 22.82 4.76 7.48 4.76 15.06 0 17.01 0 1.67 4.08 0 17.24 13.35 19.2 21.43 19.2 1.67 23.28 0.01 36.37 13.35 38.3 21.4 38.3 1.67 42.37 0 55.53 13.35 57.49 21.43 57.49 1.67 61.58 0.01 74.66 13.35 76.59 21.4 76.59 9.35 81.36 8.13 81.36 21.14 77.27 22.81 62.26 7.5 62.26 21.14 58.18 22.82"/><polygon class="cls-1" points="81.36 0 76.59 1.22 76.59 6.55 81.36 5.33 81.36 0"/><path class="cls-2" d="M99.84,6.51l2.51,10.28V6.51H105V25.68h-2.38l-2.78-11v11H97.22V6.51Z" transform="translate(-5 -4.69)"/><path class="cls-2" d="M111.49,22.07h-2.13L109,25.68h-2.61l2.34-19.17h3.45l2.51,19.17h-2.81Zm-1.83-2.86h1.52l-.77-7.09Z" transform="translate(-5 -4.69)"/><path class="cls-2" d="M122.28,6.5V9.29h-2.45V25.68H117V9.29H114.5V6.5Z" transform="translate(-5 -4.69)"/><path class="cls-2" d="M126.85,25.67h-2.92V6.5h2.91Z" transform="translate(-5 -4.69)"/><path class="cls-2" d="M136.73,21.39c0,2.68-.9,4.51-3.7,4.51h-.49c-2.79,0-3.77-1.82-3.77-4.5V10.73c0-2.68,1-4.41,3.73-4.41H133c2.84,0,3.74,1.75,3.74,4.38Zm-3-10.82c0-1-.34-1.47-1-1.47s-1,.47-1,1.47v11c0,.83.23,1.47,1,1.47s1-.65,1-1.47Z" transform="translate(-5 -4.69)"/><path class="cls-2" d="M141.29,6.5l2.5,10.28V6.49h2.65V25.67h-2.37l-2.79-11v11h-2.62V6.5Z" transform="translate(-5 -4.69)"/><path class="cls-2" d="M152.94,22.06H150.8l-.36,3.61h-2.6l2.33-19.18h3.46l2.5,19.17h-2.81Zm-1.83-2.86h1.52l-.78-7.09Z" transform="translate(-5 -4.69)"/><path class="cls-2" d="M160.43,6.49V22.7H164v3h-6.47V6.49Z" transform="translate(-5 -4.69)"/><path class="cls-2" d="M168.54,6.5h3.74l1.39,10.13L175.09,6.5h3.48V25.67h-2.73V13.28l-1.75,12.4h-1.16l-1.78-12.4v12.4h-2.6Z" transform="translate(-5 -4.69)"/><path class="cls-2" d="M180.52,6.5h3V21.68c0,.82.28,1.36.93,1.36s1-.51,1-1.36V6.5h3v15c0,2.7-1.08,4.4-3.65,4.4h-.52c-2.58,0-3.63-1.62-3.63-4.4Z" transform="translate(-5 -4.69)"/><path class="cls-2" d="M194.33,6.31c2.4,0,3.32,1.06,3.32,3.33v3.14h-2.81V10c0-.65-.13-1.14-.83-1.14s-.85.44-.85,1.34v.36a4.09,4.09,0,0,0,1.19,2.94l1.85,2.4a6.52,6.52,0,0,1,1.73,4.84v.62c0,2.81-1.18,4.48-3.76,4.48h-.57c-2.34,0-3.55-1.26-3.55-3.63V18.4h2.88v3.35c0,.9.31,1.34,1,1.34s.95-.44.95-1.65V21a4.11,4.11,0,0,0-1.19-3.22l-1.85-2.37a6.79,6.79,0,0,1-1.6-4.74v-.62c0-2.57,1.28-3.74,3.58-3.74Z" transform="translate(-5 -4.69)"/><path class="cls-2" d="M206.31,6.49V9.27H202.6v5h2.91v2.91H202.6v5.54h3.87v2.91h-6.78V6.49Z" transform="translate(-5 -4.69)"/><path class="cls-2" d="M208.08,6.49h3V21.67c0,.82.28,1.36.93,1.36s1-.51,1-1.36V6.49h3v15c0,2.7-1.09,4.4-3.66,4.4h-.52c-2.58,0-3.63-1.62-3.63-4.4Z" transform="translate(-5 -4.69)"/><path class="cls-2" d="M217.84,6.49h3.74L223,16.61l1.41-10.13h3.48V25.66h-2.74V13.26l-1.75,12.4h-1.16l-1.78-12.4v12.4h-2.6Z" transform="translate(-5 -4.69)"/><path class="cls-2" d="M233.92,6.3c2.4,0,3.33,1.06,3.33,3.32v3.15h-2.81V10c0-.64-.13-1.13-.83-1.13s-.85.44-.85,1.34v.36A4.1,4.1,0,0,0,234,13.52l1.86,2.39a6.57,6.57,0,0,1,1.72,4.85v.62c0,2.8-1.18,4.48-3.76,4.48h-.56c-2.35,0-3.56-1.26-3.56-3.63V18.39h2.88v3.35c0,.9.3,1.34,1,1.34s.95-.44.95-1.65V21a4.14,4.14,0,0,0-1.18-3.22L231.4,15.4a6.8,6.8,0,0,1-1.6-4.74V10c0-2.58,1.29-3.74,3.58-3.74Z" transform="translate(-5 -4.69)"/><path class="cls-2" d="M244.92,6.48l2.5,10.28V6.48h2.66V25.65h-2.37l-2.79-11v11H242.3V6.48Z" transform="translate(-5 -4.69)"/><path class="cls-2" d="M255,25.65h-2.91V6.47H255Z" transform="translate(-5 -4.69)"/></svg>